<?xml version="1.0" encoding="UTF-8"?>
<svg version="1.1" xmlns="http://www.w3.org/2000/svg" width="1024" height="1024">
<path d="M0 0 C337.92 0 675.84 0 1024 0 C1024 337.92 1024 675.84 1024 1024 C686.08 1024 348.16 1024 0 1024 C0 686.08 0 348.16 0 0 Z " fill="#D2E3DE" transform="translate(0,0)"/>
<path d="M0 0 C0.71865234 0.14163574 1.43730469 0.28327148 2.17773438 0.42919922 C37.05885287 7.39464764 69.2647581 22.14132268 98 43 C98.93996826 43.6811084 98.93996826 43.6811084 99.89892578 44.37597656 C108.09604712 50.37098795 115.68841417 56.96291783 123 64 C123.62841797 64.60118652 124.25683594 65.20237305 124.90429688 65.82177734 C134.09962277 74.66326567 142.44408763 83.72526091 150 94 C150.83556908 95.10574725 151.67150577 96.2112168 152.5078125 97.31640625 C177.86276902 131.29333781 195.12942006 173.22975965 198.67578125 215.5859375 C198.8890751 218.78596017 198.8890751 218.78596017 199.51217651 220.97987366 C200.32661919 224.35256307 200.14188769 227.79496903 200.1328125 231.24609375 C200.13424759 232.45653099 200.13424759 232.45653099 200.13571167 233.69142151 C200.1363917 235.40194781 200.13454976 237.11247671 200.13037109 238.82299805 C200.12508313 241.39703447 200.13028924 243.97089133 200.13671875 246.54492188 C200.14576128 261.03202583 199.12407864 274.81260525 196.3125 289.0625 C196.17961578 289.73908661 196.04673157 290.41567322 195.90982056 291.11276245 C189.5944409 323.05394635 177.59638616 354.12633723 159 381 C158.5978125 381.59006836 158.195625 382.18013672 157.78125 382.78808594 C153.01688579 389.75969076 148.0843336 396.34682819 142.30078125 402.5234375 C140.39308772 404.57688011 138.55643378 406.66329249 136.7265625 408.78515625 C133.00589329 413.05214779 129.07607731 417.07214493 125.0625 421.0625 C124.39798828 421.73087891 123.73347656 422.39925781 123.04882812 423.08789062 C108.82565955 437.28346819 92.56833014 449.26390986 75 459 C74.28408691 459.4017041 73.56817383 459.8034082 72.83056641 460.21728516 C60.92569125 466.85433592 48.8000854 472.33103531 36 477 C34.95215332 477.38607422 33.90430664 477.77214844 32.82470703 478.16992188 C18.82270325 483.26897642 5.37347065 487.2386192 -9.47729492 488.70019531 C-12.26602766 489.0316154 -14.99839008 489.54269368 -17.76171875 490.04296875 C-27.27040215 491.52636216 -36.83692085 491.3938495 -46.4375 491.375 C-47.42877899 491.37478851 -48.42005798 491.37457703 -49.44137573 491.37435913 C-73.44501555 491.32339804 -96.94421353 489.03895274 -120 482 C-121.30565918 481.60651367 -121.30565918 481.60651367 -122.63769531 481.20507812 C-161.01494068 469.38199222 -194.72700879 448.47912492 -223.38037109 420.57714844 C-224.72985438 419.2630601 -226.09191311 417.96190137 -227.45703125 416.6640625 C-232.79304853 411.50696493 -237.3745763 405.79197677 -242 400 C-242.65871094 399.20851563 -243.31742187 398.41703125 -243.99609375 397.6015625 C-249.90480293 390.44453448 -254.98910086 382.7984339 -260 375 C-260.556875 374.13503906 -261.11375 373.27007813 -261.6875 372.37890625 C-269.3974128 359.95505219 -275.35299457 346.45738078 -281 333 C-281.44085938 331.97003906 -281.88171875 330.94007813 -282.3359375 329.87890625 C-291.84668323 306.58666591 -297.08813623 280.44126816 -297.203125 255.296875 C-297.20882507 254.29779114 -297.21452515 253.29870728 -297.22039795 252.26934814 C-297.22979019 250.16167234 -297.23635875 248.05398223 -297.24023438 245.94628906 C-297.24984769 242.79985157 -297.280889 239.65409474 -297.3125 236.5078125 C-297.41021704 218.1272644 -295.66752374 200.27735424 -290.8125 182.5 C-290.51206787 181.3761792 -290.21163574 180.2523584 -289.90209961 179.09448242 C-285.48393613 162.99609049 -279.87614526 147.56181832 -271.97802734 132.84277344 C-271.01383478 131.02606712 -270.0907994 129.19345009 -269.17578125 127.3515625 C-258.69999271 106.55820481 -244.10402421 87.71809567 -228 71 C-227.49678223 70.47486816 -226.99356445 69.94973633 -226.47509766 69.40869141 C-219.71970901 62.39256083 -212.71142798 55.97471828 -205 50 C-203.63488281 48.92685547 -203.63488281 48.92685547 -202.2421875 47.83203125 C-165.30873579 19.40233068 -121.42307252 1.01158169 -75 -4 C-74.030625 -4.11214844 -73.06125 -4.22429687 -72.0625 -4.33984375 C-47.92827909 -6.68266041 -23.70388099 -4.76594653 0 0 Z " fill="#E4F0E8" transform="translate(562,204)"/>
<path d="M0 0 C0.92102509 -0.00172211 1.84205017 -0.00344421 2.79098511 -0.00521851 C13.99268428 -0.00284973 24.80979588 0.50182136 35.875 2.375 C36.85114258 2.53581055 37.82728516 2.69662109 38.83300781 2.86230469 C73.03596868 8.86685133 108.53869864 26.45131813 133.796875 50.4375 C135.92467356 52.4828816 135.92467356 52.4828816 138.640625 54.5 C139.37796875 55.11875 140.1153125 55.7375 140.875 56.375 C140.875 57.035 140.875 57.695 140.875 58.375 C141.535 58.375 142.195 58.375 142.875 58.375 C144.25 59.73828125 144.25 59.73828125 145.875 61.6875 C147.8821757 64.06973317 149.88839974 66.38871025 152.06640625 68.6171875 C176.51607748 93.83216969 191.38207302 128.49702683 198.875 162.375 C199.05579102 163.18646484 199.23658203 163.99792969 199.42285156 164.83398438 C202.06194995 177.3946236 202.15465374 190.03238786 202.1875 202.8125 C202.19314972 204.03345871 202.19314972 204.03345871 202.19891357 205.27908325 C202.22286011 215.48996519 201.64488734 225.2897278 199.875 235.375 C199.72377686 236.29692139 199.57255371 237.21884277 199.41674805 238.16870117 C193.72850789 272.12943662 179.36043033 303.47744646 157.875 330.375 C157.14410156 331.2928125 156.41320312 332.210625 155.66015625 333.15625 C152.36486194 337.11338989 152.36486194 337.11338989 150.875 338.375 C149.885 338.375 148.895 338.375 147.875 338.375 C146.699375 336.9209375 146.699375 336.9209375 145.5 335.4375 C140.9569469 329.85215043 134.86047499 326.23424786 128.875 322.375 C128.14539063 321.87742187 127.41578125 321.37984375 126.6640625 320.8671875 C112.65829706 312.06514519 92.94980805 309.52330097 76.875 312.375 C71.96541968 314.22292413 68.55033488 317.73466831 64.875 321.375 C48.37222846 333.3407558 27.34561009 342.84261989 7.89453125 348.71875 C5.90109054 349.19758787 5.90109054 349.19758787 4.875 350.375 C3.20882885 350.41563832 1.54111905 350.417721 -0.125 350.375 C-0.77503625 348.16790017 -1.41984745 345.95926108 -2.0625 343.75 C-2.42214844 342.52023437 -2.78179687 341.29046875 -3.15234375 340.0234375 C-4.65217456 334.39756611 -5.25684268 329.17290993 -5.29296875 323.3515625 C-5.29724884 322.69307312 -5.30152893 322.03458374 -5.30593872 321.35614014 C-5.31588679 319.23735672 -5.31599953 317.11880225 -5.3125 315 C-5.31156342 314.27580872 -5.31062683 313.55161743 -5.30966187 312.80548096 C-5.25186052 292.26521849 -2.8236094 271.58785611 4.875 252.375 C6.16579468 252.39071045 6.16579468 252.39071045 7.48266602 252.40673828 C10.75369072 252.44134303 14.02451394 252.46614752 17.2956543 252.48486328 C18.69672768 252.49476486 20.09778133 252.50828969 21.4987793 252.52587891 C49.21965816 252.86454577 75.25262693 246.27521182 96.875 228.375 C97.50277344 227.90964844 98.13054687 227.44429687 98.77734375 226.96484375 C108.69932888 219.33075167 116.17883225 207.29265486 121.875 196.375 C122.38546875 195.40691406 122.8959375 194.43882812 123.421875 193.44140625 C138.28231338 163.3758286 140.91867804 128.36439935 140.875 95.375 C124.00929361 95.68088105 107.4873591 96.20077682 90.875 99.375 C90.10220703 99.51276855 89.32941406 99.65053711 88.53320312 99.79248047 C54.73175162 105.83843902 20.23514097 119.82037153 -0.875 148.125 C-16.09802562 171.38756971 -19.48249615 195.58573868 -13.9765625 222.75390625 C-13.69554687 223.94886719 -13.41453125 225.14382813 -13.125 226.375 C-12.97683838 227.05256348 -12.82867676 227.73012695 -12.67602539 228.42822266 C-11.72540328 232.58214437 -10.44012856 235.89725409 -8.3125 239.625 C-5.19469585 246.3099389 -6.87834969 250.64304425 -9.125 257.375 C-9.81414949 259.97607006 -10.48253793 262.57519826 -11.125 265.1875 C-11.29281982 265.85354248 -11.46063965 266.51958496 -11.63354492 267.20581055 C-13.38180212 274.2131486 -14.77946703 281.28037163 -16.125 288.375 C-18.98738463 285.51261537 -20.16040812 282.23336753 -21.125 278.375 C-21.01329361 271.8960293 -18.93247465 265.91585381 -17.0625 259.7421875 C-12.69356519 244.05042998 -14.75903797 227.40565125 -22.4609375 213.12109375 C-25.02458334 208.89047631 -27.86735273 205.09304282 -31.125 201.375 C-31.69605469 200.69824219 -32.26710938 200.02148438 -32.85546875 199.32421875 C-40.22287582 191.23420885 -50.14242653 186.52605898 -60.125 182.375 C-61.17042969 181.88257813 -62.21585938 181.39015625 -63.29296875 180.8828125 C-68.4685087 178.66946478 -73.97574394 177.53702126 -79.4375 176.25 C-81.05301758 175.85361328 -81.05301758 175.85361328 -82.70117188 175.44921875 C-94.23195115 172.69747615 -105.42311453 172.17035715 -117.25 171.8125 C-118.60157242 171.76918869 -119.95313506 171.72557098 -121.3046875 171.68164062 C-124.57804194 171.57642566 -127.85146125 171.47428521 -131.125 171.375 C-129.79239618 204.14895531 -124.78397583 239.43383682 -100.125 263.375 C-86.22831681 275.87712168 -68.06808441 281.82084394 -49.5625 281.5625 C-48.68142578 281.56185547 -47.80035156 281.56121094 -46.89257812 281.56054688 C-41.23505019 281.5229692 -35.73724453 281.08721377 -30.125 280.375 C-21.84284747 298.03184433 -19.05238351 316.84613792 -16.23828125 335.96875 C-15.33115209 342.13121765 -14.29573097 348.25734895 -13.125 354.375 C-15.06000736 354.86413541 -16.9982034 355.34065717 -18.9375 355.8125 C-20.55591797 356.21275391 -20.55591797 356.21275391 -22.20703125 356.62109375 C-53.33131535 362.61011352 -89.25655611 359.2054195 -118.125 346.375 C-119.60388084 345.81174895 -121.08308091 345.24933577 -122.5625 344.6875 C-134.92856709 339.7523321 -146.74388452 333.25321575 -158.125 326.375 C-158.89457031 325.9315625 -159.66414063 325.488125 -160.45703125 325.03125 C-167.34242849 320.57679182 -171.11642525 313.31024427 -175.125 306.375 C-175.47062988 305.78541504 -175.81625977 305.19583008 -176.17236328 304.58837891 C-202.76967455 258.74720564 -210.37368026 201.2207219 -197.41235352 149.99755859 C-196.42950788 146.41739235 -195.30149816 142.89558774 -194.125 139.375 C-193.88442871 138.63056641 -193.64385742 137.88613281 -193.39599609 137.11914062 C-185.01819669 111.49546606 -171.00729723 88.44638608 -153.125 68.375 C-152.48949219 67.62992187 -151.85398437 66.88484375 -151.19921875 66.1171875 C-135.83088338 48.09913914 -116.94822691 34.38440945 -96.125 23.375 C-95.45146484 23.01631836 -94.77792969 22.65763672 -94.08398438 22.28808594 C-84.98177366 17.47517203 -75.92461101 13.58415743 -66.125 10.375 C-64.87783203 9.94767578 -64.87783203 9.94767578 -63.60546875 9.51171875 C-42.5088874 2.30710691 -22.20402872 -0.01066328 0 0 Z " fill="#185747" transform="translate(513.125,245.625)"/>
<path d="M0 0 C0.71865234 0.14163574 1.43730469 0.28327148 2.17773438 0.42919922 C37.05885287 7.39464764 69.2647581 22.14132268 98 43 C98.93996826 43.6811084 98.93996826 43.6811084 99.89892578 44.37597656 C108.09604712 50.37098795 115.68841417 56.96291783 123 64 C123.62841797 64.60118652 124.25683594 65.20237305 124.90429688 65.82177734 C134.09962277 74.66326567 142.44408763 83.72526091 150 94 C150.83556908 95.10574725 151.67150577 96.2112168 152.5078125 97.31640625 C177.86276902 131.29333781 195.12942006 173.22975965 198.67578125 215.5859375 C198.8890751 218.78596017 198.8890751 218.78596017 199.51217651 220.97987366 C200.32661919 224.35256307 200.14188769 227.79496903 200.1328125 231.24609375 C200.13424759 232.45653099 200.13424759 232.45653099 200.13571167 233.69142151 C200.1363917 235.40194781 200.13454976 237.11247671 200.13037109 238.82299805 C200.12508313 241.39703447 200.13028924 243.97089133 200.13671875 246.54492188 C200.14576128 261.03202583 199.12407864 274.81260525 196.3125 289.0625 C196.17961578 289.73908661 196.04673157 290.41567322 195.90982056 291.11276245 C189.5944409 323.05394635 177.59638616 354.12633723 159 381 C158.5978125 381.59006836 158.195625 382.18013672 157.78125 382.78808594 C153.01688579 389.75969076 148.0843336 396.34682819 142.30078125 402.5234375 C140.39308772 404.57688011 138.55643378 406.66329249 136.7265625 408.78515625 C133.00589329 413.05214779 129.07607731 417.07214493 125.0625 421.0625 C124.39798828 421.73087891 123.73347656 422.39925781 123.04882812 423.08789062 C108.82565955 437.28346819 92.56833014 449.26390986 75 459 C74.28408691 459.4017041 73.56817383 459.8034082 72.83056641 460.21728516 C60.92569125 466.85433592 48.8000854 472.33103531 36 477 C34.95215332 477.38607422 33.90430664 477.77214844 32.82470703 478.16992188 C18.82270325 483.26897642 5.37347065 487.2386192 -9.47729492 488.70019531 C-12.26602766 489.0316154 -14.99839008 489.54269368 -17.76171875 490.04296875 C-27.27040215 491.52636216 -36.83692085 491.3938495 -46.4375 491.375 C-47.42877899 491.37478851 -48.42005798 491.37457703 -49.44137573 491.37435913 C-73.44501555 491.32339804 -96.94421353 489.03895274 -120 482 C-121.30565918 481.60651367 -121.30565918 481.60651367 -122.63769531 481.20507812 C-161.01494068 469.38199222 -194.72700879 448.47912492 -223.38037109 420.57714844 C-224.72985438 419.2630601 -226.09191311 417.96190137 -227.45703125 416.6640625 C-232.79304853 411.50696493 -237.3745763 405.79197677 -242 400 C-242.65871094 399.20851563 -243.31742187 398.41703125 -243.99609375 397.6015625 C-249.90480293 390.44453448 -254.98910086 382.7984339 -260 375 C-260.556875 374.13503906 -261.11375 373.27007813 -261.6875 372.37890625 C-269.3974128 359.95505219 -275.35299457 346.45738078 -281 333 C-281.44085938 331.97003906 -281.88171875 330.94007813 -282.3359375 329.87890625 C-291.84668323 306.58666591 -297.08813623 280.44126816 -297.203125 255.296875 C-297.20882507 254.29779114 -297.21452515 253.29870728 -297.22039795 252.26934814 C-297.22979019 250.16167234 -297.23635875 248.05398223 -297.24023438 245.94628906 C-297.24984769 242.79985157 -297.280889 239.65409474 -297.3125 236.5078125 C-297.41021704 218.1272644 -295.66752374 200.27735424 -290.8125 182.5 C-290.51206787 181.3761792 -290.21163574 180.2523584 -289.90209961 179.09448242 C-285.48393613 162.99609049 -279.87614526 147.56181832 -271.97802734 132.84277344 C-271.01383478 131.02606712 -270.0907994 129.19345009 -269.17578125 127.3515625 C-258.69999271 106.55820481 -244.10402421 87.71809567 -228 71 C-227.49678223 70.47486816 -226.99356445 69.94973633 -226.47509766 69.40869141 C-219.71970901 62.39256083 -212.71142798 55.97471828 -205 50 C-203.63488281 48.92685547 -203.63488281 48.92685547 -202.2421875 47.83203125 C-165.30873579 19.40233068 -121.42307252 1.01158169 -75 -4 C-74.030625 -4.11214844 -73.06125 -4.22429687 -72.0625 -4.33984375 C-47.92827909 -6.68266041 -23.70388099 -4.76594653 0 0 Z M-224.5859375 85.70703125 C-245.37939561 108.89222515 -262.13274262 136.08267382 -272.125 165.625 C-272.45886719 166.59695313 -272.79273438 167.56890625 -273.13671875 168.5703125 C-273.7923596 170.48324109 -274.44384136 172.39760106 -275.09082031 174.31347656 C-275.66528085 176.01094267 -276.2470205 177.70597827 -276.83886719 179.39746094 C-279.7142789 187.71342581 -281.27854806 196.12374586 -282.5625 204.8125 C-282.68818359 205.62525391 -282.81386719 206.43800781 -282.94335938 207.27539062 C-288.46859532 244.21636603 -284.8284226 280.37559943 -274 316 C-273.66226562 317.15242188 -273.32453125 318.30484375 -272.9765625 319.4921875 C-270.65051962 326.98721456 -267.38418516 334.01061347 -263.94873047 341.046875 C-263.0136143 342.97197262 -262.10138299 344.90666593 -261.19140625 346.84375 C-236.41054941 398.84367513 -189.50735506 443.53885545 -135 463 C-133.2984375 463.7425 -133.2984375 463.7425 -131.5625 464.5 C-129.7990625 465.2425 -129.7990625 465.2425 -128 466 C-126.73929687 466.53560547 -126.73929687 466.53560547 -125.453125 467.08203125 C-82.92630064 483.7436602 -34.79497898 481.83365043 9 472 C9.69432129 471.85369141 10.38864258 471.70738281 11.10400391 471.55664062 C38.18763072 465.83648572 64.88936298 452.46986059 87 436 C87.97582031 435.29617188 88.95164062 434.59234375 89.95703125 433.8671875 C121.59216024 410.73166722 144.59155963 382.31333285 163 348 C163.59039063 346.90429688 164.18078125 345.80859375 164.7890625 344.6796875 C168.59563474 337.35935626 171.38501162 329.81684698 174 322 C174.28746094 321.15179687 174.57492187 320.30359375 174.87109375 319.4296875 C175.34562323 318.01839257 175.81376311 316.60491713 176.27270508 315.18847656 C176.71863232 313.8466532 177.18367446 312.51077241 177.68066406 311.18701172 C180.18329905 304.33144422 181.43752953 297.24522646 182.73486328 290.08862305 C183.12503156 287.93732597 183.52458511 285.78793692 183.92578125 283.63867188 C185.69517894 274.06285256 187.14847927 264.79794191 187.203125 255.05859375 C187.21009399 254.22172028 187.21706299 253.3848468 187.22424316 252.52261353 C187.24158074 249.82752419 187.24796586 247.13264283 187.25 244.4375 C187.25100708 243.5178244 187.25201416 242.5981488 187.25305176 241.65060425 C187.24260972 227.56506274 186.68220052 213.86465175 184 200 C183.85014648 199.19143555 183.70029297 198.38287109 183.54589844 197.54980469 C181.84123864 188.53428973 179.54650959 179.97651014 176.24609375 171.40625 C175.25846958 168.70653753 174.43697063 166.06521945 173.65625 163.3046875 C166.60535561 139.48415879 152.48140262 117.2132087 137 98 C136.52095215 97.40525879 136.0419043 96.81051758 135.54833984 96.19775391 C124.66440418 82.83132327 112.59609175 70.60284364 99 60 C98.24074219 59.36191406 97.48148438 58.72382813 96.69921875 58.06640625 C91.46437036 53.69376819 85.94978213 49.85782717 80.25 46.125 C79.5286084 45.64820801 78.8072168 45.17141602 78.06396484 44.68017578 C74.14075255 42.15273044 70.54878042 40.24447766 66 39 C66 38.34 66 37.68 66 37 C63.89915791 35.99303432 61.79420511 34.9946411 59.6875 34 C57.92986328 33.1646875 57.92986328 33.1646875 56.13671875 32.3125 C53.10545833 30.80699916 53.10545833 30.80699916 50 31 C50 30.34 50 29.68 50 29 C49.45472656 28.82984375 48.90945313 28.6596875 48.34765625 28.484375 C44.4293713 27.22516548 40.65705587 25.89143001 36.9375 24.125 C17.052548 15.13918836 -5.39540458 11.66840081 -26.8972168 9.30957031 C-29 9 -29 9 -32 8 C-104.83104418 3.72760684 -174.96824657 32.30079742 -224.5859375 85.70703125 Z " fill="#96C372" transform="translate(562,204)"/>
<path d="M0 0 C0.35089092 39.74244499 -6.09857331 79.44771187 -35.03515625 109.18359375 C-49.03765988 122.87977811 -67.08194942 129.66816423 -86 133 C-86.95060303 133.17724609 -87.90120605 133.35449219 -88.88061523 133.53710938 C-91.92256561 133.98850938 -94.76373526 134.11417347 -97.8359375 134.09765625 C-98.89941406 134.09443359 -99.96289062 134.09121094 -101.05859375 134.08789062 C-102.15300781 134.07951172 -103.24742187 134.07113281 -104.375 134.0625 C-105.49261719 134.05798828 -106.61023438 134.05347656 -107.76171875 134.04882812 C-110.50786804 134.03709244 -113.25390586 134.02067363 -116 134 C-117 131 -117 131 -115.76953125 128.09375 C-115.13027942 126.88879614 -114.47671001 125.6913781 -113.8125 124.5 C-113.4530127 123.84491455 -113.09352539 123.1898291 -112.72314453 122.51489258 C-101.20293201 101.84854908 -87.55093362 82.92731054 -71 66 C-70.35708008 65.34193359 -69.71416016 64.68386719 -69.05175781 64.00585938 C-66.95815838 61.87186579 -64.85654938 59.74620874 -62.75 57.625 C-62.10047363 56.97063965 -61.45094727 56.3162793 -60.78173828 55.64208984 C-54.84600822 49.72746729 -48.65675466 44.15907779 -42 39.0625 C-40.8553125 38.18271484 -40.8553125 38.18271484 -39.6875 37.28515625 C-39.130625 36.86105469 -38.57375 36.43695313 -38 36 C-55.52217801 44.46428925 -71.91135254 54.03295319 -85.29296875 68.3828125 C-87 70 -87 70 -89 70 C-89 70.66 -89 71.32 -89 72 C-90.62589208 73.70646726 -92.30038647 75.36694476 -94 77 C-104.89622052 88.26248003 -113.37046354 100.5893347 -121.33374023 114.04711914 C-121.98644897 115.14334595 -121.98644897 115.14334595 -122.65234375 116.26171875 C-123.03382568 116.91100342 -123.41530762 117.56028809 -123.80834961 118.22924805 C-125.03955815 120.05878206 -126.39312838 121.49632995 -128 123 C-134.65945827 100.52432833 -135.15515484 76.57693861 -124.29638672 55.48706055 C-111.42745251 31.94936476 -86.40049708 17.12045025 -61.3671875 9.5546875 C-57.59855022 8.46622644 -53.81117472 7.46441284 -50.00732422 6.50683594 C-48.26212694 6.0661853 -46.52300971 5.6015895 -44.78515625 5.1328125 C-30.37527713 1.45933478 -14.87918585 -0.67203098 0 0 Z " fill="#8CBD60" transform="translate(641,353)"/>
<path d="M0 0 C0 0.66 0 1.32 0 2 C1.546875 2.0309375 1.546875 2.0309375 3.125 2.0625 C13.4254207 3.36148734 23.41344283 10.31163987 31 17 C31.83724609 17.69802734 31.83724609 17.69802734 32.69140625 18.41015625 C34.125 19.6875 34.125 19.6875 36 22 C35.44565084 27.65636162 30.25051405 31.10577735 26.16796875 34.54199219 C24.3039819 36.02380186 22.41401581 37.45843762 20.5 38.875 C19.80277832 39.3918335 19.10555664 39.90866699 18.38720703 40.44116211 C-7.77337208 59.55168685 -37.81116424 72.28191778 -69.73339844 77.61938477 C-71.42684689 77.90375423 -73.11718272 78.20677407 -74.80566406 78.51928711 C-83.72804097 80.06641235 -92.47730748 80.35729636 -101.5 80.3125 C-102.24467529 80.31100952 -102.98935059 80.30951904 -103.7565918 80.3079834 C-116.0485838 80.26390014 -127.92699351 79.43837801 -140 77 C-141.22904053 76.75926758 -141.22904053 76.75926758 -142.48291016 76.51367188 C-149.87953835 75.04328389 -157.04783289 73.48870594 -164.08666992 70.74511719 C-166.94820225 69.63073711 -169.85155016 68.63877706 -172.75 67.625 C-196.89444255 58.95448514 -217.06943847 46.02603631 -237 30 C-234 29 -234 29 -231.6159668 30.04785156 C-230.67406494 30.5734668 -229.73216309 31.09908203 -228.76171875 31.640625 C-221.7066824 35.30971049 -214.43265049 37.61135353 -206.8125 39.75 C-206.12492615 39.94488007 -205.43735229 40.13976013 -204.72894287 40.34054565 C-194.52400923 43.21520611 -184.66768155 45.75808908 -174 46 C-172.21722656 46.04326416 -172.21722656 46.04326416 -170.3984375 46.08740234 C-148.34549556 46.55352161 -127.35218558 45.91291293 -106 40 C-104.81535156 39.71382812 -103.63070312 39.42765625 -102.41015625 39.1328125 C-81.27822899 33.94734501 -60.89073331 24.93962722 -42.125 14 C-41.41794922 13.5884668 -40.71089844 13.17693359 -39.98242188 12.75292969 C-36.7267409 10.80775947 -33.68434005 8.82152284 -30.7890625 6.3671875 C-21.05996994 -1.61116861 -12.14642295 -1.00775173 0 0 Z " fill="#62B4D4" transform="translate(616,570)"/>
<path d="M0 0 C29.26796071 -1.14278372 58.63166572 4.80837289 81.25 24.4375 C91.06758429 33.55707984 97.1131049 45.19888471 98.21875 58.6640625 C98.4994578 67.34261198 96.79947103 75.55962398 95 84 C94.34 84 93.68 84 93 84 C91.54252873 81.90148327 90.19853874 79.80593251 88.875 77.625 C84.97304616 71.3850206 80.79245267 65.59891956 76 60 C75.30261719 59.18015625 74.60523438 58.3603125 73.88671875 57.515625 C61.45700142 43.29761797 47.25577145 34.13645549 31 25 C30.67 25.33 30.34 25.66 30 26 C30.67804688 26.47308594 31.35609375 26.94617188 32.0546875 27.43359375 C38.79465054 32.22251486 44.99643934 37.31910629 51 43 C51.75023437 43.69738281 52.50046875 44.39476562 53.2734375 45.11328125 C59.59126124 51.17617526 64.85242093 57.94631281 70 65 C70.51062988 65.69818848 71.02125977 66.39637695 71.54736328 67.11572266 C73.16662971 69.34092712 74.77331958 71.57460946 76.375 73.8125 C76.87491455 74.50537109 77.3748291 75.19824219 77.88989258 75.91210938 C86 87.38100348 86 87.38100348 86 92 C69.3978776 95.95748266 51.06546784 92.09621654 36.28125 84.09375 C20.38166569 73.94830096 12.30040299 59.3312725 6 42 C5.50125366 40.82449585 5.50125366 40.82449585 4.99243164 39.62524414 C3.26927992 35.06705214 2.66747052 30.29304993 1.875 25.5 C1.69614258 24.42878906 1.51728516 23.35757812 1.33300781 22.25390625 C0.13961944 14.7526079 -0.53443085 7.6007943 0 0 Z " fill="#8DBE62" transform="translate(392,426)"/>
<path d="M0 0 C0.33 0 0.66 0 1 0 C1.33 2.97 1.66 5.94 2 9 C2.66 9 3.32 9 4 9 C4.03738281 9.64066406 4.07476563 10.28132812 4.11328125 10.94140625 C4.54151349 16.57559903 5.52198235 20.85334796 8 26 C8.42925781 27.21429687 8.85851563 28.42859375 9.30078125 29.6796875 C10.997991 34.25354175 13.30260618 38.32848098 15.8125 42.5 C16.26044922 43.24975098 16.70839844 43.99950195 17.16992188 44.77197266 C32.74429321 70.57336424 56.70092249 89.28712848 86 97 C91.29763631 98.20047248 96.63895465 99.13349727 102 100 C102 100.33 102 100.66 102 101 C68.34 101 34.68 101 0 101 C0 67.67 0 34.34 0 0 Z " fill="#FCFDFD" transform="translate(0,923)"/>
<path d="M0 0 C0.33 0 0.66 0 1 0 C1 33.66 1 67.32 1 102 C-33.32 102 -67.64 102 -103 102 C-98.98530986 99.99265493 -95.54134149 99.33845513 -91.1875 98.6875 C-70.51606789 95.23012631 -53.19607724 86.10989559 -37 73 C-36.13632812 72.32839844 -35.27265625 71.65679688 -34.3828125 70.96484375 C-12.9267009 53.27234517 -3.68521734 26.43864258 0 0 Z " fill="#FCFDFD" transform="translate(1023,922)"/>
<path d="M0 0 C33 0 66 0 100 0 C100 0.33 100 0.66 100 1 C98.75347656 1.20753906 97.50695312 1.41507812 96.22265625 1.62890625 C73.75300525 5.59779686 54.57154965 14.10906757 38 30 C36.69066213 31.06639432 35.37826793 32.12904959 34.0625 33.1875 C18.06989546 47.24551528 7.48987464 67.82510233 3.66015625 88.48046875 C2.92968014 92.37490055 2.01558769 96.17201564 1 100 C0.67 100 0.34 100 0 100 C0 67 0 34 0 0 Z " fill="#FCFCFC" transform="translate(0,0)"/>
<path d="M0 0 C32.67 0 65.34 0 99 0 C99 31.68 99 63.36 99 96 C98.67 96 98.34 96 98 96 C97.91363281 95.37996094 97.82726562 94.75992188 97.73828125 94.12109375 C94.3317474 72.65055472 84.37843599 53.18299566 70 37 C69.19949219 36.09894531 68.39898438 35.19789062 67.57421875 34.26953125 C49.97787803 15.69401609 25.42359875 3.58644704 0 1 C0 0.67 0 0.34 0 0 Z " fill="#FDFDFD" transform="translate(925,0)"/>
<path d="M0 0 C3.37138405 1.21943678 4.72168632 2.26128833 6.9375 5.0625 C7.39160156 7.99511719 7.39160156 7.99511719 7.328125 11.359375 C7.31813477 12.44573242 7.30814453 13.53208984 7.29785156 14.65136719 C7.26143555 16.02454102 7.22501953 17.39771484 7.1875 18.8125 C7.105 23.185 7.0225 27.5575 6.9375 32.0625 C18.1575 32.0625 29.3775 32.0625 40.9375 32.0625 C40.77949706 23.02734723 40.77949706 23.02734723 40.57714844 13.99316406 C40.5671582 12.86620117 40.55716797 11.73923828 40.546875 10.578125 C40.52592773 9.42602539 40.50498047 8.27392578 40.48339844 7.08691406 C41.03328414 3.42455705 42.03047829 2.2811219 44.9375 0.0625 C48.31710702 -0.63075272 49.60512854 -0.13942491 52.5592041 1.65525818 C55.73566823 4.87038263 55.56001561 6.60870621 55.55273438 11.07836914 C55.55828339 11.77639145 55.5638324 12.47441376 55.56954956 13.19358826 C55.58133911 15.49564758 55.55708399 17.79573536 55.53125 20.09765625 C55.5295388 21.6990093 55.52960467 23.30036515 55.53137207 24.90171814 C55.52971932 28.25514583 55.51102866 31.6079046 55.47949219 34.96118164 C55.43978203 39.26118038 55.43545071 43.56030436 55.44295502 47.8604517 C55.44602301 51.16588873 55.43391094 54.47112878 55.41682434 57.77651787 C55.40979011 59.36215416 55.40667032 60.94781277 55.40751648 62.53346443 C55.40572043 64.74806282 55.38435841 66.9616088 55.35742188 69.17602539 C55.34900269 70.436371 55.3405835 71.69671661 55.33190918 72.99525452 C54.9375 76.0625 54.9375 76.0625 53.53234863 77.96580505 C51.55159265 79.32786853 50.33049502 79.49546781 47.9375 79.5 C47.256875 79.51933594 46.57625 79.53867187 45.875 79.55859375 C43.9375 79.0625 43.9375 79.0625 42.3347168 77.46606445 C40.44557953 74.21627301 40.59692535 71.85437269 40.64453125 68.109375 C40.65577026 66.29711426 40.65577026 66.29711426 40.66723633 64.44824219 C40.69454834 62.91844727 40.72186035 61.38865234 40.75 59.8125 C40.8428125 52.51125 40.8428125 52.51125 40.9375 45.0625 C29.3875 45.0625 17.8375 45.0625 5.9375 45.0625 C6.05612407 55.12975935 6.05612407 55.12975935 6.20776367 65.1965332 C6.21525635 66.44781006 6.22274902 67.69908691 6.23046875 68.98828125 C6.25403442 70.91281128 6.25403442 70.91281128 6.27807617 72.8762207 C5.9375 76.0625 5.9375 76.0625 4.6340332 77.97729492 C1.71702338 79.84319054 -0.71622404 79.47344617 -4.0625 79.0625 C-7.06659964 76.86386815 -7.96281826 75.66385613 -8.5771637 71.95765686 C-8.58336227 70.73807785 -8.58956085 69.51849884 -8.59594727 68.26196289 C-8.60456284 67.58666031 -8.61317841 66.91135773 -8.62205505 66.21559143 C-8.64471519 63.98838721 -8.63797674 61.76244135 -8.62890625 59.53515625 C-8.63414223 57.98343024 -8.64041861 56.43170743 -8.64768982 54.87998962 C-8.65809428 51.62923192 -8.65353284 48.37891194 -8.63891602 45.12817383 C-8.62173539 40.96710662 -8.64521241 36.8074212 -8.68040562 32.64650822 C-8.70239316 29.44220368 -8.7009349 26.23822903 -8.6926403 23.0338726 C-8.69182136 21.50010094 -8.69867402 19.96630492 -8.71341133 18.43260384 C-8.73088273 16.28502279 -8.71629871 14.13991433 -8.69360352 11.99243164 C-8.69264175 10.77205704 -8.69167999 9.55168243 -8.69068909 8.29432678 C-7.72667024 3.33476604 -5.21304239 0.10638862 0 0 Z " fill="#11525D" transform="translate(357.0625,709.9375)"/>
<path d="M0 0 C3.36681815 0.49099431 4.58993388 1.0811794 7 3.4375 C7.49206543 5.83244324 7.49206543 5.83244324 7.48242188 8.69995117 C7.48922974 9.7750444 7.4960376 10.85013763 7.50305176 11.95780945 C7.49173218 13.12028702 7.4804126 14.28276459 7.46875 15.48046875 C7.47579956 16.67803299 7.48284912 17.87559723 7.4901123 19.10945129 C7.5196573 24.23982673 7.50300489 29.36982611 7.49072266 34.50024414 C7.4883362 38.243882 7.50930089 41.98690701 7.53125 45.73046875 C7.51993042 46.88282516 7.50861084 48.03518158 7.49694824 49.22245789 C7.53991122 56.1066072 8.28100261 60.59111723 12 66.4375 C15.34460418 69.5487597 17.95587716 70.69360216 22.4375 70.9375 C27.06674876 70.68811286 30.54921381 69.59327079 34 66.4375 C37.94667822 61.47496082 38.64096502 56.20505822 38.3828125 49.9921875 C37.64034949 45.0373833 35.40394954 42.49046216 31.5 39.5625 C26.40605734 37.92516129 21.30095663 37.68443931 16 38.4375 C13.78727899 39.88537322 13.78727899 39.88537322 12 41.4375 C11.34 41.4375 10.68 41.4375 10 41.4375 C9.21502657 31.4770594 9.21502657 31.4770594 12.3125 27.375 C18.68590901 22.78021676 23.23286373 22.72317664 31 23.4375 C38.68391253 25.38471304 44.90753182 30.3092051 49.609375 36.5859375 C54.3713933 44.63856395 54.15341076 53.50350517 52.40625 62.4921875 C49.91761822 70.62632654 44.81375026 77.24756618 37.71875 81.94921875 C29.93124057 85.64828573 20.26988745 86.02126937 12.0625 83.5546875 C2.73805211 79.26203009 -2.18179057 73.18987558 -5.95675659 63.79345703 C-7.68055487 58.2482574 -7.69537245 52.92368868 -7.62890625 47.15625 C-7.63131821 45.93973755 -7.63373016 44.7232251 -7.63621521 43.46984863 C-7.63524273 40.9219229 -7.62199426 38.37397445 -7.59692383 35.82617188 C-7.56234377 31.91985117 -7.576367 28.01576256 -7.59570312 24.109375 C-7.58881139 21.62499037 -7.57914513 19.14061153 -7.56640625 16.65625 C-7.57136612 15.48960815 -7.57632599 14.32296631 -7.58143616 13.12097168 C-7.56559982 12.03884399 -7.54976349 10.95671631 -7.53344727 9.84179688 C-7.52724869 8.89203979 -7.52105011 7.94228271 -7.5146637 6.96374512 C-6.62387999 2.59130149 -4.33803331 0.63262986 0 0 Z " fill="#145560" transform="translate(598,705.5625)"/>
<path d="M0 0 C6.36933427 3.80141605 10.7835088 9.31962712 13.21875 16.32421875 C14.54279368 22.94322354 14.44111928 29.5644252 14.45898438 36.28393555 C14.46876802 38.51583052 14.49987654 40.74683313 14.53125 42.97851562 C14.5377739 44.39973415 14.54302677 45.82095921 14.546875 47.2421875 C14.56089355 49.17227661 14.56089355 49.17227661 14.57519531 51.14135742 C14.21875 54.32421875 14.21875 54.32421875 12.91308594 56.2434082 C10.03378016 58.08010657 7.52434927 57.67217657 4.21875 57.32421875 C2.02539062 56.28662109 2.02539062 56.28662109 0.21875 54.32421875 C-0.15913339 51.60292287 -0.29191038 49.26992228 -0.25 46.55078125 C-0.25704956 45.79002289 -0.26409912 45.02926453 -0.2713623 44.24545288 C-0.30085739 40.99353648 -0.28424185 37.74221766 -0.27197266 34.49023438 C-0.2695871 32.11422106 -0.29053904 29.73917445 -0.3125 27.36328125 C-0.30118042 26.63291656 -0.28986084 25.90255188 -0.27819824 25.15005493 C-0.32661141 20.23848128 -1.28682792 17.76687751 -4.78125 14.32421875 C-9.23376622 11.38960578 -13.52072278 10.28194607 -18.78125 11.32421875 C-23.01870078 13.09803536 -25.99754615 15.29560745 -28.78125 18.94921875 C-30.50221475 24.7574748 -31.1516018 30.32629702 -28.57421875 35.96484375 C-26.12945041 39.80220166 -24.16770808 42.72841407 -19.78125 44.32421875 C-14.56327415 44.99299062 -10.1938196 45.24671318 -5.71875 42.32421875 C-5.079375 41.66421875 -4.44 41.00421875 -3.78125 40.32421875 C-3.12125 40.32421875 -2.46125 40.32421875 -1.78125 40.32421875 C-0.99949104 51.21672689 -0.99949104 51.21672689 -4.03125 55.51171875 C-9.7004552 59.24824036 -16.18068608 58.92954685 -22.78125 58.32421875 C-30.077838 56.21607282 -35.63912255 52.60299119 -39.40625 45.94921875 C-40.21363651 44.41572625 -41.00420056 42.87330441 -41.78125 41.32421875 C-42.585625 39.92623047 -42.585625 39.92623047 -43.40625 38.5 C-46.08259748 32.31854972 -46.14419803 22.78429939 -43.65625 16.38671875 C-34.0521726 0.70005899 -18.30559541 -8.46930957 0 0 Z " fill="#135661" transform="translate(468.78125,731.67578125)"/>
<path d="M0 0 C5.41897339 4.61122483 9.71664322 8.95616901 10.66688538 16.26399231 C10.78095462 18.67195067 10.80273929 21.06207366 10.78515625 23.47265625 C10.78802643 24.34585007 10.79089661 25.21904388 10.79385376 26.11869812 C10.79588444 27.95161595 10.79042468 29.78455594 10.77783203 31.61743164 C10.76166639 34.43098721 10.77776379 37.24312741 10.796875 40.05664062 C10.79489429 41.84114901 10.79105419 43.62565651 10.78515625 45.41015625 C10.79426529 46.67416008 10.79426529 46.67416008 10.80355835 47.96369934 C10.77490234 50.3215332 10.77490234 50.3215332 10.38671875 54.109375 C6.66613515 56.58976407 4.78875304 56.57274703 0.38671875 56.109375 C-1.80664062 54.57788086 -1.80664062 54.57788086 -3.61328125 52.109375 C-3.98375664 49.35424551 -4.12470676 46.98760522 -4.08203125 44.23828125 C-4.08908081 43.47893784 -4.09613037 42.71959442 -4.10339355 41.9372406 C-4.13284016 38.6981343 -4.1162625 35.4596321 -4.10400391 32.22045898 C-4.10161898 29.85103622 -4.1225629 27.48258345 -4.14453125 25.11328125 C-4.13321167 24.38605362 -4.12189209 23.65882599 -4.11022949 22.90956116 C-4.15879559 18.00549846 -5.12419677 15.54438656 -8.61328125 12.109375 C-12.66226931 9.41004963 -15.86260284 9.57408729 -20.61328125 10.109375 C-24.88264043 11.87280596 -26.6289066 13.9924238 -28.61328125 18.109375 C-28.8970767 20.86269508 -29.03090601 23.39866436 -29.01953125 26.1484375 C-29.03036743 26.91110931 -29.04120361 27.67378113 -29.05236816 28.45956421 C-29.09810168 31.7076829 -29.1097405 34.9557184 -29.12451172 38.20410156 C-29.14018487 40.5816707 -29.17316821 42.95856925 -29.20703125 45.3359375 C-29.20401001 46.07035065 -29.20098877 46.80476379 -29.19787598 47.56143188 C-29.272828 52.63450427 -29.272828 52.63450427 -31.01757812 55.06811523 C-32.99871852 56.36088815 -34.25572819 56.54240994 -36.61328125 56.546875 C-37.29390625 56.56621094 -37.97453125 56.58554687 -38.67578125 56.60546875 C-40.61328125 56.109375 -40.61328125 56.109375 -42.20727539 54.56152344 C-44.12716248 51.213139 -44.06226498 48.13620078 -44.046875 44.37890625 C-44.05211685 43.62904953 -44.0573587 42.87919281 -44.0627594 42.10661316 C-44.06917328 40.52055089 -44.06785074 38.93444101 -44.05932617 37.34838867 C-44.05086926 34.94686665 -44.07949526 32.54776829 -44.11132812 30.14648438 C-44.16170291 19.2583658 -42.89093847 10.87388832 -35.3203125 2.61328125 C-26.30923603 -5.32553898 -9.8861594 -7.15231861 0 0 Z " fill="#135761" transform="translate(539.61328125,732.890625)"/>
<path d="M0 0 C3.60156782 0.00693944 5.43517674 0.97887708 8.0625 3.4375 C8.57043457 5.70750427 8.57043457 5.70750427 8.58007812 8.39624023 C8.59268677 9.40416122 8.60529541 10.41208221 8.61828613 11.45054626 C8.60614075 13.08184227 8.60614075 13.08184227 8.59375 14.74609375 C8.5975769 15.8643605 8.60140381 16.98262726 8.60534668 18.13478088 C8.60807018 20.50107726 8.60067855 22.86740352 8.58398438 25.23364258 C8.56260256 28.85761677 8.58376257 32.47960373 8.609375 36.10351562 C8.60673141 38.40104605 8.60160579 40.69857524 8.59375 42.99609375 C8.60184692 44.08160019 8.60994385 45.16710663 8.61828613 46.2855072 C8.60567749 47.29658035 8.59306885 48.3076535 8.58007812 49.34936523 C8.57689575 50.2374437 8.57371338 51.12552216 8.57043457 52.04051208 C7.89242495 55.24009911 6.60833563 56.44260944 4.0625 58.4375 C0.34802693 58.96813901 -1.88313949 59.07945859 -5.12524414 57.10546875 C-8.05407058 52.79370594 -7.48752406 48.34105961 -7.43359375 43.25 C-7.43504898 42.15534424 -7.43650421 41.06068848 -7.43800354 39.93286133 C-7.43634432 37.61960182 -7.42478062 35.3063313 -7.40405273 32.99316406 C-7.37510782 29.45069527 -7.38344225 25.90972357 -7.39648438 22.3671875 C-7.39024671 20.11978439 -7.38185555 17.872386 -7.37109375 15.625 C-7.37402939 14.56450439 -7.37696503 13.50400879 -7.37998962 12.41137695 C-7.36730545 11.42355225 -7.35462128 10.43572754 -7.34155273 9.41796875 C-7.33614975 8.55067139 -7.33074677 7.68337402 -7.32518005 6.78979492 C-6.51860435 1.89580071 -4.85982096 0.53998011 0 0 Z " fill="#185761" transform="translate(668.9375,730.5625)"/>
<path d="M0 0 C0.99 0.33 1.98 0.66 3 1 C3.67065466 2.91136579 4.33988185 4.82325099 5 6.73828125 C8.52570381 14.71243167 15.20991875 18.96166755 22.9375 22.25 C23.618125 22.4975 24.29875 22.745 25 23 C25 23.66 25 24.32 25 25 C24.21496094 25.3403125 23.42992187 25.680625 22.62109375 26.03125 C11.73574938 31.05320028 6.17844446 36.78827324 2 48 C1.34 48 0.68 48 0 48 C-0.3403125 47.21496094 -0.680625 46.42992187 -1.03125 45.62109375 C-6.05320028 34.73574938 -11.78827324 29.17844446 -23 25 C-23 24.34 -23 23.68 -23 23 C-22.21496094 22.6596875 -21.42992187 22.319375 -20.62109375 21.96875 C-9.73574938 16.94679972 -4.17844446 11.21172676 0 0 Z " fill="#E6EFF5" transform="translate(967,944)"/>
<path d="M0 0 C2.65600586 1.328125 2.65600586 1.328125 5 4 C5.75806449 7.72199904 5.6762508 11.4005117 5.62890625 15.1875 C5.63131821 16.28215576 5.63373016 17.37681152 5.63621521 18.50463867 C5.63523616 20.81790796 5.62182908 23.13120051 5.59692383 25.44433594 C5.56262453 28.98713698 5.57626115 32.5274434 5.59570312 36.0703125 C5.58880463 38.31771896 5.57913223 40.56511898 5.56640625 42.8125 C5.57136612 43.87299561 5.57632599 44.93349121 5.58143616 46.02612305 C5.46458057 53.31523639 5.46458057 53.31523639 3.18725586 56.671875 C-0.01375417 58.61556231 -2.3368601 58.46621781 -6 58 C-7.69058228 56.78930664 -7.69058228 56.78930664 -9 55 C-9.38095093 52.68530273 -9.38095093 52.68530273 -9.38818359 49.93359375 C-9.39764008 48.90242432 -9.40709656 47.87125488 -9.4168396 46.80883789 C-9.41076691 45.69629639 -9.40469421 44.58375488 -9.3984375 43.4375 C-9.40130768 42.29466553 -9.40417786 41.15183105 -9.40713501 39.97436523 C-9.40917757 37.55679835 -9.40363438 35.13921501 -9.39111328 32.72167969 C-9.37506321 29.01459915 -9.39095641 25.308609 -9.41015625 21.6015625 C-9.40817385 19.25520592 -9.40433025 16.90885002 -9.3984375 14.5625 C-9.40451019 13.4499585 -9.41058289 12.33741699 -9.4168396 11.19116211 C-9.40738312 10.15999268 -9.39792664 9.12882324 -9.38818359 8.06640625 C-9.38579681 7.15834229 -9.38341003 6.25027832 -9.38095093 5.31469727 C-8.49087973 -0.09346743 -4.93137639 -0.69039269 0 0 Z " fill="#11545F" transform="translate(573,731)"/>
<path d="M0 0 C0.33 0 0.66 0 1 0 C1.03738281 1.10214844 1.07476562 2.20429688 1.11328125 3.33984375 C1.70949747 17.96419907 2.42339772 35.30380426 9.8125 48.25 C12.93030415 54.9349389 11.24665031 59.26804425 9 66 C8.31085051 68.60107006 7.64246207 71.20019826 7 73.8125 C6.74827026 74.81156372 6.74827026 74.81156372 6.49145508 75.83081055 C4.74319788 82.8381486 3.34553297 89.90537163 2 97 C-0.86238463 94.13761537 -2.03540812 90.85836753 -3 87 C-2.88829361 80.5210293 -0.80747465 74.54085381 1.0625 68.3671875 C5.35943751 52.93402028 3.5610078 36.34998378 -4.3046875 22.40234375 C-5 20 -5 20 -3.7578125 17.19140625 C-3.17773438 16.46824219 -2.59765625 15.74507813 -2 15 C-1.34 15 -0.68 15 0 15 C0 10.05 0 5.1 0 0 Z " fill="#246653" transform="translate(495,437)"/>
<path d="M0 0 C2.76276177 0.52268466 5.3260876 1.10869587 8 2 C10.63804589 1.60602665 10.63804589 1.60602665 13 1 C13 1.66 13 2.32 13 3 C15.31 3 17.62 3 20 3 C20.33 5.31 20.66 7.62 21 10 C18.64031256 12.09749995 17.45383006 12.96905704 14.25 13.1875 C13.5075 13.125625 12.765 13.06375 12 13 C12.04125 13.78375 12.0825 14.5675 12.125 15.375 C12 18 12 18 10 20 C8 19.625 8 19.625 6 19 C3.2716232 19 0.68345937 19.53331141 -2 20 C-2.33 18.68 -2.66 17.36 -3 16 C-4.98 16.33 -6.96 16.66 -9 17 C-9 15.35 -9 13.7 -9 12 C-8.05125 11.54625 -7.1025 11.0925 -6.125 10.625 C-2.99686321 9.19761746 -2.99686321 9.19761746 -1 7 C-0.59952556 4.67724823 -0.2602896 2.34260643 0 0 Z " fill="#246452" transform="translate(430,393)"/>
<path d="M0 0 C1.32 0.33 2.64 0.66 4 1 C4 2.32 4 3.64 4 5 C5.65 5 7.3 5 9 5 C9.33 3.35 9.66 1.7 10 0 C11.32 0 12.64 0 14 0 C14.33 1.65 14.66 3.3 15 5 C14.21625 5.2475 13.4325 5.495 12.625 5.75 C9.67682892 7.15389099 9.0975223 8.00675737 8 11 C6.68 11 5.36 11 4 11 C4 9.35 4 7.7 4 6 C3.01 6 2.02 6 1 6 C0.74984127 9.41642759 0.74984127 9.41642759 1 13 C1.99 13.66 2.98 14.32 4 15 C3.67 16.32 3.34 17.64 3 19 C2.195625 18.814375 1.39125 18.62875 0.5625 18.4375 C-0.7059375 18.2209375 -0.7059375 18.2209375 -2 18 C-2.33 18.33 -2.66 18.66 -3 19 C-4.66617115 19.04063832 -6.33388095 19.042721 -8 19 C-9.125 15.25 -9.125 15.25 -8 13 C-9.65 13.33 -11.3 13.66 -13 14 C-13.433125 12.576875 -13.433125 12.576875 -13.875 11.125 C-14.76825109 7.94788422 -14.76825109 7.94788422 -17 6 C-16.625 3.875 -16.625 3.875 -16 2 C-14.02 2.495 -14.02 2.495 -12 3 C-11.67 4.65 -11.34 6.3 -11 8 C-6.05 6.515 -6.05 6.515 -1 5 C-0.67 3.35 -0.34 1.7 0 0 Z " fill="#23594B" transform="translate(473,371)"/>
<path d="M0 0 C0.33 1.65 0.66 3.3 1 5 C2.65 5 4.3 5 6 5 C6.66 6.65 7.32 8.3 8 10 C9.65 10 11.3 10 13 10 C13.75 12.25 13.75 12.25 14 15 C11.1810022 19.11103846 7.7114682 19.91273811 3 21 C3 20.01 3 19.02 3 18 C0.69 17.34 -1.62 16.68 -4 16 C-4 15.01 -4 14.02 -4 13 C-4.66 13 -5.32 13 -6 13 C-6 12.34 -6 11.68 -6 11 C-6.99 10.67 -7.98 10.34 -9 10 C-9.5625 8.0625 -9.5625 8.0625 -10 6 C-10.66 5.34 -11.32 4.68 -12 4 C-8.41084094 -0.78554541 -5.58334594 -0.37222306 0 0 Z " fill="#195543" transform="translate(416,385)"/>
<path d="M0 0 C3.33592062 0.57113038 4.88268788 1.75375437 7.0078125 4.34375 C7.6328125 7.78125 7.6328125 7.78125 7.0078125 11.34375 C4.9453125 14.28125 4.9453125 14.28125 2.0078125 16.34375 C-1.91801564 16.9636176 -3.99301669 16.93300458 -7.4296875 14.90625 C-9.67414008 11.22534776 -9.85325711 7.55600944 -8.9921875 3.34375 C-6.51511639 -0.029283 -4.13486741 -0.18309376 0 0 Z " fill="#145861" transform="translate(670.9921875,705.65625)"/>
<path d="M0 0 C2.9375 1.5 2.9375 1.5 5 4 C5.71196877 6.82472163 5.71755985 9.1760548 5 12 C2.45767292 14.99097304 0.8425303 15.84202557 -3 16.5625 C-7.13607554 15.78698584 -8.54999553 14.38677089 -11 11 C-11.63007693 7.00951279 -11.63021887 4.98314143 -9.4375 1.5625 C-6.04295632 -0.61348954 -3.9634351 -0.55627159 0 0 Z " fill="#165B65" transform="translate(574,706)"/>
<path d="M0 0 C2.125 0.375 2.125 0.375 4 1 C3.75 3.375 3.75 3.375 3 6 C1.125 7.125 1.125 7.125 -1 8 C-1.45375 8.515625 -1.9075 9.03125 -2.375 9.5625 C-4 11 -4 11 -7 11.3125 C-7.99 11.539375 -8.98 11.76625 -10 12 C-11.93469849 14.95071844 -11.93469849 14.95071844 -13 18 C-13.66 18 -14.32 18 -15 18 C-15 19.65 -15 21.3 -15 23 C-16.65 23.33 -18.3 23.66 -20 24 C-20.625 22.25 -20.625 22.25 -21 20 C-20.3507041 18.65812182 -19.68268138 17.32520503 -19 16 C-19 15.13375 -19 14.2675 -19 13.375 C-19 11 -19 11 -17 9 C-17.32198966 5.90073181 -17.32198966 5.90073181 -18 3 C-16.68 3 -15.36 3 -14 3 C-13.01 4.485 -13.01 4.485 -12 6 C-10.3725363 5.38144369 -8.74809644 4.75492695 -7.125 4.125 C-6.22007812 3.77695312 -5.31515625 3.42890625 -4.3828125 3.0703125 C-1.87782993 2.11469105 -1.87782993 2.11469105 0 0 Z " fill="#447F6E" transform="translate(484,352)"/>
<path d="M0 0 C1.98 0.495 1.98 0.495 4 1 C4.33 2.32 4.66 3.64 5 5 C6.65 5 8.3 5 10 5 C11.43305609 9.47830028 12.44286767 13.23917255 12 18 C11.34 18.66 10.68 19.32 10 20 C7.875 19.625 7.875 19.625 6 19 C5.855625 17.783125 5.71125 16.56625 5.5625 15.3125 C5.17219047 12.17329623 4.67648144 9.0924866 4 6 C2.35 5.67 0.7 5.34 -1 5 C-0.67 3.35 -0.34 1.7 0 0 Z " fill="#316C5B" transform="translate(586,521)"/>
<path d="M0 0 C1.32 0.33 2.64 0.66 4 1 C4 2.32 4 3.64 4 5 C5.65 5 7.3 5 9 5 C9.33 3.35 9.66 1.7 10 0 C11.32 0 12.64 0 14 0 C14.33 1.65 14.66 3.3 15 5 C14.21625 5.2475 13.4325 5.495 12.625 5.75 C9.67682892 7.15389099 9.0975223 8.00675737 8 11 C6.68 11 5.36 11 4 11 C4 9.35 4 7.7 4 6 C3.01 6 2.02 6 1 6 C1 7.65 1 9.3 1 11 C-0.65 11.33 -2.3 11.66 -4 12 C-4.75 10.25 -4.75 10.25 -5 8 C-3.71034824 6.62437146 -2.37310707 5.29233607 -1 4 C-0.2127322 1.8618034 -0.2127322 1.8618034 0 0 Z " fill="#387260" transform="translate(473,371)"/>
<path d="M0 0 C0.33 0 0.66 0 1 0 C1.47545004 9.45617311 0.10435896 17.83100739 -2 27 C-5.2942648 23.7057352 -6.91801488 19.42934858 -7.07421875 14.80078125 C-6.69506179 10.77874373 -6.05324486 8.58351489 -3 6 C-1.95377125 4.02379014 -0.94560065 2.0262871 0 0 Z " fill="#205D4E" transform="translate(499,507)"/>
<path d="M0 0 C0.33 0.66 0.66 1.32 1 2 C3.31 2 5.62 2 8 2 C8.33 4.31 8.66 6.62 9 9 C6.44931155 11.35448165 5.28982642 11.98327924 1.75 12.1875 C0.8425 12.125625 -0.065 12.06375 -1 12 C-1.66 10.35 -2.32 8.7 -3 7 C-2.01 6.67 -1.02 6.34 0 6 C-1.65 5.67 -3.3 5.34 -5 5 C-4.67 3.68 -4.34 2.36 -4 1 C-2.68 0.67 -1.36 0.34 0 0 Z " fill="#226453" transform="translate(442,394)"/>
<path d="M0 0 C0.556875 0.268125 1.11375 0.53625 1.6875 0.8125 C0.90375 1.26625 0.12 1.72 -0.6875 2.1875 C-3.34948031 3.69678742 -3.34948031 3.69678742 -5.3125 5.8125 C-5.64552936 8.80759062 -5.64552936 8.80759062 -5.63134766 12.37353516 C-5.64641609 13.38346779 -5.64641609 13.38346779 -5.66178894 14.4138031 C-5.69272182 16.64304741 -5.70968368 18.87217109 -5.7265625 21.1015625 C-5.74526607 22.64571172 -5.76483887 24.18985065 -5.7852478 25.73397827 C-5.8366609 29.80112645 -5.87623727 33.8683078 -5.91339111 37.93560791 C-5.95337343 42.0847602 -6.00449202 46.23377342 -6.0546875 50.3828125 C-6.15155537 58.52594681 -6.23592514 66.66914971 -6.3125 74.8125 C-6.6425 74.8125 -6.9725 74.8125 -7.3125 74.8125 C-7.42842622 65.77209532 -7.51723108 56.73194706 -7.57156086 47.69096088 C-7.59763862 43.49268119 -7.63300223 39.29491055 -7.68969727 35.09692383 C-7.74408381 31.04444068 -7.77393425 26.99244667 -7.78688622 22.93962669 C-7.79611434 21.39462777 -7.81413536 19.84965517 -7.84115028 18.30486488 C-7.87753239 16.13796086 -7.88244204 13.97306924 -7.88012695 11.8059082 C-7.89123001 10.57346878 -7.90233307 9.34102936 -7.91377258 8.07124329 C-7.1286865 3.81627795 -4.81195786 -0.39015875 0 0 Z " fill="#336D76" transform="translate(356.3125,710.1875)"/>
<path d="M0 0 C1.65 0.33 3.3 0.66 5 1 C5.33 2.65 5.66 4.3 6 6 C5.01 6.495 5.01 6.495 4 7 C3.01 6.67 2.02 6.34 1 6 C0.566875 6.9590625 0.566875 6.9590625 0.125 7.9375 C-1 10 -1 10 -3 11 C-5.5625 10.375 -5.5625 10.375 -8 9 C-8.8125 6.375 -8.8125 6.375 -9 4 C-6.13822943 2.56911472 -4.06624227 3.40008303 -1 4 C-0.67 2.68 -0.34 1.36 0 0 Z " fill="#3D7865" transform="translate(612,491)"/>
<path d="M0 0 C0.33 0 0.66 0 1 0 C1.06058594 1.16015625 1.12117188 2.3203125 1.18359375 3.515625 C1.6545968 12.35759368 2.18730226 21.18136491 3 30 C2.01 30.33 1.02 30.66 0 31 C-0.92220746 29.28475421 -1.81198411 27.55204208 -2.6875 25.8125 C-3.18636719 24.84957031 -3.68523437 23.88664062 -4.19921875 22.89453125 C-5 20 -5 20 -3.76953125 17.13671875 C-3.18558594 16.43160156 -2.60164063 15.72648437 -2 15 C-1.34 15 -0.68 15 0 15 C0 10.05 0 5.1 0 0 Z " fill="#2F6C5A" transform="translate(495,437)"/>
<path d="M0 0 C1.134375 0.020625 2.26875 0.04125 3.4375 0.0625 C4.1875 2.3125 4.1875 2.3125 4.4375 5.0625 C1.6185022 9.17353846 -1.8510318 9.97523811 -6.5625 11.0625 C-6.8925 9.0825 -7.2225 7.1025 -7.5625 5.0625 C-6.9025 5.0625 -6.2425 5.0625 -5.5625 5.0625 C-5.3459375 4.1034375 -5.3459375 4.1034375 -5.125 3.125 C-4.16977878 -0.37747781 -3.91378882 0.06866296 0 0 Z " fill="#134C3D" transform="translate(425.5625,394.9375)"/>
<path d="M0 0 C-0.33 3.96 -0.66 7.92 -1 12 C-2.32 12.33 -3.64 12.66 -5 13 C-6.75747614 8.49646738 -7.19294408 4.82360189 -7 0 C-4 -1 -4 -1 0 0 Z " fill="#33715F" transform="translate(532,535)"/>
<path d="M0 0 C1.98 0.495 1.98 0.495 4 1 C4.33 2.65 4.66 4.3 5 6 C5.763125 5.649375 6.52625 5.29875 7.3125 4.9375 C10 4 10 4 13 5 C11.71034824 6.37562854 10.37310707 7.70766393 9 9 C8.34 9 7.68 9 7 9 C6.67 9.99 6.34 10.98 6 12 C4.68 11.67 3.36 11.34 2 11 C1.87625 10.21625 1.7525 9.4325 1.625 8.625 C1.20882007 5.85942178 1.20882007 5.85942178 -1 4 C-0.625 1.875 -0.625 1.875 0 0 Z " fill="#286050" transform="translate(457,373)"/>
<path d="M0 0 C1.65 0.33 3.3 0.66 5 1 C5 2.65 5 4.3 5 6 C4.01 6.33 3.02 6.66 2 7 C2 8.65 2 10.3 2 12 C0.35 12.33 -1.3 12.66 -3 13 C-3.85580298 10.60375166 -4.18971474 9.4523967 -3.1875 7.0625 C-2.795625 6.381875 -2.40375 5.70125 -2 5 C-1.32033324 3.33859237 -0.65061095 1.67299959 0 0 Z " fill="#508273" transform="translate(467,363)"/>
<path d="M0 0 C3.875 1.75 3.875 1.75 5 4 C5.99 4 6.98 4 8 4 C8.33 5.65 8.66 7.3 9 9 C7.68 9.99 6.36 10.98 5 12 C4.67 11.34 4.34 10.68 4 10 C2.02 10 0.04 10 -2 10 C-1.34 9.01 -0.68 8.02 0 7 C-0.28112064 4.99199544 -0.61067967 2.98985949 -1 1 C-0.67 0.67 -0.34 0.34 0 0 Z " fill="#1D5F4E" transform="translate(467,354)"/>
<path d="M0 0 C0.66 0.33 1.32 0.66 2 1 C-0.06178074 2.75085334 -2.12439877 4.50070381 -4.1875 6.25 C-4.76564453 6.74113281 -5.34378906 7.23226563 -5.93945312 7.73828125 C-9.25231411 10.54579056 -12.5936212 13.30568908 -16 16 C-16 12.13275409 -15.04787429 10.27911159 -13 7 C-9.93359375 4.84765625 -9.93359375 4.84765625 -6.4375 3.0625 C-5.28121094 2.45535156 -4.12492188 1.84820312 -2.93359375 1.22265625 C-1.96550781 0.81917969 -0.99742187 0.41570312 0 0 Z " fill="#E1EFE3" transform="translate(602,388)"/>
<path d="M0 0 C1.32 0 2.64 0 4 0 C4 1.65 4 3.3 4 5 C2.68 5 1.36 5 0 5 C-0.33 6.65 -0.66 8.3 -1 10 C-4 11 -4 11 -7 10 C-7.125 7.625 -7.125 7.625 -7 5 C-6.34 4.34 -5.68 3.68 -5 3 C-3.68 3 -2.36 3 -1 3 C-0.67 2.01 -0.34 1.02 0 0 Z " fill="#3C7766" transform="translate(522,357)"/>
<path d="M0 0 C2 3 2 3 2 6 C2.66 6 3.32 6 4 6 C4.28571429 13.42857143 4.28571429 13.42857143 2 17 C1.67 15.35 1.34 13.7 1 12 C0.54625 12.969375 0.0925 13.93875 -0.375 14.9375 C-2 18 -2 18 -4 19 C-2.02 9.595 -2.02 9.595 0 0 Z " fill="#2B6658" transform="translate(498,496)"/>
<path d="M0 0 C3.40166367 0.71402846 6.35070098 1.97965141 9.5 3.4375 C10.4384375 3.86933594 11.376875 4.30117188 12.34375 4.74609375 C14.57903006 5.80127743 16.79554966 6.8821773 19 8 C16 9 16 9 13 8 C12.67 8.66 12.34 9.32 12 10 C9.99708788 8.52464063 7.99763223 7.04497707 6 5.5625 C5.42765625 5.14162109 4.8553125 4.72074219 4.265625 4.28710938 C2.82546081 3.21555864 1.41048004 2.11033324 0 1 C0 0.67 0 0.34 0 0 Z " fill="#7FBFDC" transform="translate(379,599)"/>
<path d="M0 0 C0.99 0.33 1.98 0.66 3 1 C3.33 2.65 3.66 4.3 4 6 C2.73160474 6.50615298 1.46016898 7.00469099 0.1875 7.5 C-0.87404297 7.91765625 -0.87404297 7.91765625 -1.95703125 8.34375 C-4 9 -4 9 -7 9 C-7 6.69 -7 4.38 -7 2 C-6.01 3.485 -6.01 3.485 -5 5 C-3.68 5 -2.36 5 -1 5 C-0.67 3.35 -0.34 1.7 0 0 Z " fill="#185142" transform="translate(469,370)"/>
<path d="M0 0 C3 3.75 3 3.75 3 6 C-1.62459244 7.17700048 -6.07866462 7.11408412 -10.8125 7.0625 C-11.99489258 7.05573242 -11.99489258 7.05573242 -13.20117188 7.04882812 C-15.13414761 7.03711312 -17.06708393 7.01917998 -19 7 C-19 6.67 -19 6.34 -19 6 C-13.72 6 -8.44 6 -3 6 C-2.34 4.68 -1.68 3.36 -1 2 C-0.67 1.34 -0.34 0.68 0 0 Z " fill="#AACF8D" transform="translate(475,512)"/>
<path d="M0 0 C0.33 0 0.66 0 1 0 C1 2.97 1 5.94 1 9 C0.34 9 -0.32 9 -1 9 C-1 9.66 -1 10.32 -1 11 C-2.32 10.67 -3.64 10.34 -5 10 C-3.33333333 6.66666667 -1.66666667 3.33333333 0 0 Z " fill="#144B3F" transform="translate(499,507)"/>
<path d="M0 0 C0.33 0 0.66 0 1 0 C1.33 3.96 1.66 7.92 2 12 C1.01 12.33 0.02 12.66 -1 13 C-1.66 10.69 -2.32 8.38 -3 6 C-2.34 6 -1.68 6 -1 6 C-0.67 4.02 -0.34 2.04 0 0 Z " fill="#3E7664" transform="translate(496,455)"/>
<path d="M0 0 C2 3 2 3 2 6 C0.625 7.5 0.625 7.5 -1 9 C-1.99 10.485 -1.99 10.485 -3 12 C-3 10.68 -3 9.36 -3 8 C-4.98 8 -6.96 8 -9 8 C-6.06279492 6.47700477 -3.0831351 5.19899698 0 4 C0 2.68 0 1.36 0 0 Z " fill="#12483B" transform="translate(470,386)"/>
<path d="M0 0 C1.65 0.33 3.3 0.66 5 1 C4.67 2.32 4.34 3.64 4 5 C2.68 5.33 1.36 5.66 0 6 C-1.125 2.25 -1.125 2.25 0 0 Z " fill="#C0D5D4" transform="translate(540,544)"/>
<path d="M0 0 C0.66 0.33 1.32 0.66 2 1 C-1.3 4.3 -4.6 7.6 -8 11 C-8.66 10.67 -9.32 10.34 -10 10 C-8.90033225 8.70450101 -7.79508199 7.41373929 -6.6875 6.125 C-6.07261719 5.40570312 -5.45773437 4.68640625 -4.82421875 3.9453125 C-3 2 -3 2 0 0 Z " fill="#276B78" transform="translate(438,733)"/>
<path d="M0 0 C2.0625 0.4375 2.0625 0.4375 4 1 C4 2.32 4 3.64 4 5 C2.68 5.33 1.36 5.66 0 6 C-0.38218767 4.34385343 -0.71395102 2.67542976 -1 1 C-0.67 0.67 -0.34 0.34 0 0 Z " fill="#C3D4D1" transform="translate(411,379)"/>
<path d="M0 0 C1.32 0 2.64 0 4 0 C4.33 1.65 4.66 3.3 5 5 C3.68 5.33 2.36 5.66 1 6 C-0.0625 4.125 -0.0625 4.125 -1 2 C-0.67 1.34 -0.34 0.68 0 0 Z " fill="#C7DBD7" transform="translate(483,371)"/>
<path d="M0 0 C1.32 0.66 2.64 1.32 4 2 C3.67 3.32 3.34 4.64 3 6 C1.35 5.67 -0.3 5.34 -2 5 C-1.125 1.125 -1.125 1.125 0 0 Z " fill="#BFD6D0" transform="translate(491,365)"/>
<path d="M0 0 C1.65 0.33 3.3 0.66 5 1 C4.6875 2.9375 4.6875 2.9375 4 5 C3.01 5.33 2.02 5.66 1 6 C0.34 5.67 -0.32 5.34 -1 5 C-0.67 3.35 -0.34 1.7 0 0 Z " fill="#B6CDC8" transform="translate(490,347)"/>
<path d="M0 0 C1.65 0 3.3 0 5 0 C4.67 1.65 4.34 3.3 4 5 C2.35 4.67 0.7 4.34 -1 4 C-0.67 2.68 -0.34 1.36 0 0 Z " fill="#B3CAC3" transform="translate(590,502)"/>
<path d="M0 0 C1.32 0 2.64 0 4 0 C4 1.65 4 3.3 4 5 C2.68 5.33 1.36 5.66 0 6 C-0.38218767 4.34385343 -0.71395102 2.67542976 -1 1 C-0.67 0.67 -0.34 0.34 0 0 Z " fill="#C7DBD7" transform="translate(511,341)"/>
<path d="M0 0 C2.0078125 0.328125 2.0078125 0.328125 5.0078125 3.328125 C2.0378125 2.998125 -0.9321875 2.668125 -3.9921875 2.328125 C-4.9821875 3.813125 -4.9821875 3.813125 -5.9921875 5.328125 C-6.6521875 5.328125 -7.3121875 5.328125 -7.9921875 5.328125 C-6.76176005 -0.12091087 -5.63631991 0.20798228 0 0 Z " fill="#306E74" transform="translate(670.9921875,730.671875)"/>
<path d="M0 0 C1.65 0.33 3.3 0.66 5 1 C4.67 2.32 4.34 3.64 4 5 C2.35 4.67 0.7 4.34 -1 4 C-0.67 2.68 -0.34 1.36 0 0 Z " fill="#C5D5CF" transform="translate(587,543)"/>
<path d="M0 0 C1.98 0.495 1.98 0.495 4 1 C3.67 2.65 3.34 4.3 3 6 C1.68 5.67 0.36 5.34 -1 5 C-0.67 3.35 -0.34 1.7 0 0 Z " fill="#CCDAD5" transform="translate(586,521)"/>
<path d="M0 0 C1.98 0.495 1.98 0.495 4 1 C3.67 2.65 3.34 4.3 3 6 C1.68 5.67 0.36 5.34 -1 5 C-0.67 3.35 -0.34 1.7 0 0 Z " fill="#B9D1CA" transform="translate(575,505)"/>
<path d="M0 0 C1.65 0.33 3.3 0.66 5 1 C4.67 2.32 4.34 3.64 4 5 C2.35 4.67 0.7 4.34 -1 4 C-0.67 2.68 -0.34 1.36 0 0 Z " fill="#C1D5D1" transform="translate(598,499)"/>
<path d="M0 0 C1.65 0.33 3.3 0.66 5 1 C4.67 2.32 4.34 3.64 4 5 C2.35 4.67 0.7 4.34 -1 4 C-0.67 2.68 -0.34 1.36 0 0 Z " fill="#C4D9D2" transform="translate(467,418)"/>
<path d="M0 0 C1.98 0.495 1.98 0.495 4 1 C3.67 2.65 3.34 4.3 3 6 C1.68 5.67 0.36 5.34 -1 5 C-0.67 3.35 -0.34 1.7 0 0 Z " fill="#C0D4CF" transform="translate(445,408)"/>
<path d="M0 0 C1.98 0.495 1.98 0.495 4 1 C3.67 2.65 3.34 4.3 3 6 C1.68 5.67 0.36 5.34 -1 5 C-0.67 3.35 -0.34 1.7 0 0 Z " fill="#CDDDD8" transform="translate(437,407)"/>
<path d="M0 0 C1.98 0.495 1.98 0.495 4 1 C3.67 2.65 3.34 4.3 3 6 C1.68 5.67 0.36 5.34 -1 5 C-0.67 3.35 -0.34 1.7 0 0 Z " fill="#CBDDD8" transform="translate(429,406)"/>
<path d="M0 0 C-0.33 0.66 -0.66 1.32 -1 2 C-1.763125 1.938125 -2.52625 1.87625 -3.3125 1.8125 C-6.04525312 1.74101915 -6.04525312 1.74101915 -7.8125 3.5 C-8.204375 3.995 -8.59625 4.49 -9 5 C-9 3.02 -9 1.04 -9 -1 C-5.38055101 -2.34053666 -3.42632833 -1.61798838 0 0 Z " fill="#145043" transform="translate(451,407)"/>
<path d="M0 0 C2.0625 0.4375 2.0625 0.4375 4 1 C3.67 2.32 3.34 3.64 3 5 C1.68 5 0.36 5 -1 5 C-1 1 -1 1 0 0 Z " fill="#C5D9D1" transform="translate(485,404)"/>
<path d="M0 0 C1.65 0.33 3.3 0.66 5 1 C4.67 2.32 4.34 3.64 4 5 C2.35 4.67 0.7 4.34 -1 4 C-0.67 2.68 -0.34 1.36 0 0 Z " fill="#BCD3CC" transform="translate(423,390)"/>
<path d="M0 0 C1.98 0.495 1.98 0.495 4 1 C3.67 2.65 3.34 4.3 3 6 C1.68 5.67 0.36 5.34 -1 5 C-0.67 3.35 -0.34 1.7 0 0 Z " fill="#BAD4CB" transform="translate(497,332)"/>
<path d="M0 0 C1.65 0.33 3.3 0.66 5 1 C4.67 2.32 4.34 3.64 4 5 C2.35 4.67 0.7 4.34 -1 4 C-0.67 2.68 -0.34 1.36 0 0 Z " fill="#C3CDC9" transform="translate(587,329)"/>
<path d="M0 0 C1.98 0.495 1.98 0.495 4 1 C3.67 2.65 3.34 4.3 3 6 C1.68 5.67 0.36 5.34 -1 5 C-0.67 3.35 -0.34 1.7 0 0 Z " fill="#BED4CF" transform="translate(510,325)"/>
<path d="M0 0 C1.67542976 0.28604898 3.34385343 0.61781233 5 1 C5 1.99 5 2.98 5 4 C3.35 4.33 1.7 4.66 0 5 C-0.5625 3.0625 -0.5625 3.0625 -1 1 C-0.67 0.67 -0.34 0.34 0 0 Z " fill="#C0D0CE" transform="translate(541,560)"/>
<path d="M0 0 C1.79158489 -0.02696365 3.58328473 -0.04637917 5.375 -0.0625 C6.37273438 -0.07410156 7.37046875 -0.08570313 8.3984375 -0.09765625 C11 0 11 0 13 1 C13 1.66 13 2.32 13 3 C11.58249437 2.88490339 10.16598831 2.75746342 8.75 2.625 C7.96109375 2.55539062 7.1721875 2.48578125 6.359375 2.4140625 C3.914123 1.98492887 2.15163097 1.21399362 0 0 Z " fill="#EEF5F0" transform="translate(606,558)"/>
<path d="M0 0 C-0.33 1.32 -0.66 2.64 -1 4 C-2.65 3.67 -4.3 3.34 -6 3 C-6 2.01 -6 1.02 -6 0 C-3.50907189 -1.24546405 -2.58919267 -0.7767578 0 0 Z " fill="#CBDBDB" transform="translate(544,553)"/>
<path d="M0 0 C2.475 0.495 2.475 0.495 5 1 C4.67 2.32 4.34 3.64 4 5 C2.68 5 1.36 5 0 5 C0 3.35 0 1.7 0 0 Z " fill="#C3D6D0" transform="translate(591,527)"/>
<path d="M0 0 C1.32 0 2.64 0 4 0 C4.33 1.32 4.66 2.64 5 4 C3.35 4.33 1.7 4.66 0 5 C-0.5625 3.0625 -0.5625 3.0625 -1 1 C-0.67 0.67 -0.34 0.34 0 0 Z " fill="#CDE0DB" transform="translate(438,395)"/>
<path d="M0 0 C0.99 0 1.98 0 3 0 C3.33 1.65 3.66 3.3 4 5 C2.68 5.33 1.36 5.66 0 6 C-0.38218767 4.34385343 -0.71395102 2.67542976 -1 1 C-0.67 0.67 -0.34 0.34 0 0 Z " fill="#C1D3D1" transform="translate(417,385)"/>
<path d="M0 0 C0.66 0 1.32 0 2 0 C0.78065514 4.03321763 -0.55954927 7.54269479 -3 11 C-3.66 11 -4.32 11 -5 11 C-3.78065514 6.96678237 -2.44045073 3.45730521 0 0 Z " fill="#296456" transform="translate(335,349)"/>
<path d="M0 0 C2.475 0.495 2.475 0.495 5 1 C5 2.32 5 3.64 5 5 C3.35 5 1.7 5 0 5 C0 3.35 0 1.7 0 0 Z " fill="#CCDFDB" transform="translate(460,413)"/>
<path d="M0 0 C0.66 0.33 1.32 0.66 2 1 C0.90716423 2.03295436 -0.19970579 3.05107835 -1.3125 4.0625 C-1.92738281 4.63097656 -2.54226563 5.19945312 -3.17578125 5.78515625 C-3.77777344 6.18605469 -4.37976563 6.58695312 -5 7 C-5.99 6.67 -6.98 6.34 -8 6 C-5.54080489 3.3651481 -3.42227589 1.25483449 0 0 Z " fill="#CCE0C3" transform="translate(602,388)"/>
<path d="M0 0 C1.65 0 3.3 0 5 0 C4.67 1.65 4.34 3.3 4 5 C2.68 5 1.36 5 0 5 C0 3.35 0 1.7 0 0 Z " fill="#D6E6E3" transform="translate(493,383)"/>
<path d="M0 0 C1.32 0.66 2.64 1.32 4 2 C3.67 3.32 3.34 4.64 3 6 C1.68 5.67 0.36 5.34 -1 5 C-0.67 3.35 -0.34 1.7 0 0 Z " fill="#C9DCDA" transform="translate(467,354)"/>
<path d="M0 0 C1.65 0.33 3.3 0.66 5 1 C4.67 2.32 4.34 3.64 4 5 C2.68 4.67 1.36 4.34 0 4 C0 2.68 0 1.36 0 0 Z " fill="#B7CECA" transform="translate(462,348)"/>
<path d="M0 0 C1.98 0.495 1.98 0.495 4 1 C4 2.32 4 3.64 4 5 C2.35 5 0.7 5 -1 5 C-0.67 3.35 -0.34 1.7 0 0 Z " fill="#D7E5DF" transform="translate(580,546)"/>
<path d="M0 0 C1.65 0 3.3 0 5 0 C4.67 1.65 4.34 3.3 4 5 C2.68 4.67 1.36 4.34 0 4 C0 2.68 0 1.36 0 0 Z " fill="#C9D6D2" transform="translate(526,543)"/>
<path d="M0 0 C1.65 0 3.3 0 5 0 C4.67 1.65 4.34 3.3 4 5 C2.68 4.67 1.36 4.34 0 4 C0 2.68 0 1.36 0 0 Z " fill="#DAE5E2" transform="translate(592,536)"/>
<path d="M0 0 C1.32 0 2.64 0 4 0 C4 1.65 4 3.3 4 5 C2.35 4.67 0.7 4.34 -1 4 C-0.67 2.68 -0.34 1.36 0 0 Z " fill="#C0D3D2" transform="translate(549,531)"/>
<path d="M0 0 C1.32 0 2.64 0 4 0 C4 1.65 4 3.3 4 5 C2.35 4.67 0.7 4.34 -1 4 C-0.67 2.68 -0.34 1.36 0 0 Z " fill="#D0E2E1" transform="translate(555,526)"/>
<path d="M0 0 C1.98 0.495 1.98 0.495 4 1 C4 2.32 4 3.64 4 5 C2.35 5 0.7 5 -1 5 C-0.67 3.35 -0.34 1.7 0 0 Z " fill="#CBDCDA" transform="translate(570,519)"/>
<path d="M0 0 C1.65 0 3.3 0 5 0 C4.67 1.65 4.34 3.3 4 5 C2.68 4.67 1.36 4.34 0 4 C0 2.68 0 1.36 0 0 Z " fill="#CBD8D7" transform="translate(535,520)"/>
<path d="M0 0 C1.32 0 2.64 0 4 0 C4 1.65 4 3.3 4 5 C2.35 4.67 0.7 4.34 -1 4 C-0.67 2.68 -0.34 1.36 0 0 Z " fill="#D3E0DE" transform="translate(578,519)"/>
<path d="M0 0 C2.475 0.99 2.475 0.99 5 2 C5 1.34 5 0.68 5 0 C5.66 0 6.32 0 7 0 C6.67 1.32 6.34 2.64 6 4 C3.69 4.33 1.38 4.66 -1 5 C-0.67 3.35 -0.34 1.7 0 0 Z " fill="#2A6254" transform="translate(493,516)"/>
<path d="M0 0 C2.475 0.495 2.475 0.495 5 1 C4.67 2.32 4.34 3.64 4 5 C2.68 5 1.36 5 0 5 C0 3.35 0 1.7 0 0 Z " fill="#DBE6E6" transform="translate(542,515)"/>
<path d="M0 0 C1.98 0.495 1.98 0.495 4 1 C4 2.32 4 3.64 4 5 C2.35 5 0.7 5 -1 5 C-0.67 3.35 -0.34 1.7 0 0 Z " fill="#C8D9D8" transform="translate(559,509)"/>
<path d="M0 0 C1.98 0.495 1.98 0.495 4 1 C4 2.32 4 3.64 4 5 C2.35 5 0.7 5 -1 5 C-0.67 3.35 -0.34 1.7 0 0 Z " fill="#C9DAD6" transform="translate(567,507)"/>
<path d="M0 0 C2.475 0.495 2.475 0.495 5 1 C4.67 2.32 4.34 3.64 4 5 C2.68 5 1.36 5 0 5 C0 3.35 0 1.7 0 0 Z " fill="#CFE0DA" transform="translate(605,496)"/>
<path d="M0 0 C2.475 0.495 2.475 0.495 5 1 C4.67 2.32 4.34 3.64 4 5 C2.68 5 1.36 5 0 5 C0 3.35 0 1.7 0 0 Z " fill="#C7D9D4" transform="translate(612,491)"/>
<path d="M0 0 C2.475 0.495 2.475 0.495 5 1 C4.67 2.32 4.34 3.64 4 5 C2.68 5 1.36 5 0 5 C0 3.35 0 1.7 0 0 Z " fill="#BFD3CE" transform="translate(618,486)"/>
<path d="M0 0 C2.475 0.495 2.475 0.495 5 1 C4.67 2.32 4.34 3.64 4 5 C2.68 5 1.36 5 0 5 C0 3.35 0 1.7 0 0 Z " fill="#C3D5CF" transform="translate(624,480)"/>
<path d="M0 0 C1.98 0.495 1.98 0.495 4 1 C4 2.32 4 3.64 4 5 C2.35 5 0.7 5 -1 5 C-0.67 3.35 -0.34 1.7 0 0 Z " fill="#C2D5D1" transform="translate(453,410)"/>
<path d="M0 0 C2.475 0.495 2.475 0.495 5 1 C4.67 2.32 4.34 3.64 4 5 C2.68 5 1.36 5 0 5 C0 3.35 0 1.7 0 0 Z " fill="#C6D9D4" transform="translate(421,405)"/>
<path d="M0 0 C2.475 0.495 2.475 0.495 5 1 C4.67 2.32 4.34 3.64 4 5 C2.68 5 1.36 5 0 5 C0 3.35 0 1.7 0 0 Z " fill="#C9DCD6" transform="translate(486,397)"/>
<path d="M0 0 C1.65 0 3.3 0 5 0 C4.67 1.65 4.34 3.3 4 5 C2.68 4.67 1.36 4.34 0 4 C0 2.68 0 1.36 0 0 Z " fill="#D0E0DA" transform="translate(461,395)"/>
<path d="M0 0 C1.32 0 2.64 0 4 0 C4 1.65 4 3.3 4 5 C2.35 4.67 0.7 4.34 -1 4 C-0.67 2.68 -0.34 1.36 0 0 Z " fill="#CCDCD5" transform="translate(454,396)"/>
<path d="M0 0 C2.475 0.495 2.475 0.495 5 1 C4.67 2.32 4.34 3.64 4 5 C2.68 5 1.36 5 0 5 C0 3.35 0 1.7 0 0 Z " fill="#C4D8D1" transform="translate(430,393)"/>
<path d="M0 0 C1.65 0 3.3 0 5 0 C4.67 1.65 4.34 3.3 4 5 C2.68 4.67 1.36 4.34 0 4 C0 2.68 0 1.36 0 0 Z " fill="#BACFCB" transform="translate(503,372)"/>
<path d="M0 0 C1.32 0 2.64 0 4 0 C4 1.65 4 3.3 4 5 C2.35 4.67 0.7 4.34 -1 4 C-0.67 2.68 -0.34 1.36 0 0 Z " fill="#CEDDDB" transform="translate(408,372)"/>
<path d="M0 0 C1.32 0 2.64 0 4 0 C4 1.65 4 3.3 4 5 C2.35 4.67 0.7 4.34 -1 4 C-0.67 2.68 -0.34 1.36 0 0 Z " fill="#C6D7D1" transform="translate(464,371)"/>
<path d="M0 0 C1.32 0 2.64 0 4 0 C4 1.65 4 3.3 4 5 C2.35 4.67 0.7 4.34 -1 4 C-0.67 2.68 -0.34 1.36 0 0 Z " fill="#D4E0DE" transform="translate(467,363)"/>
<path d="M0 0 C2.475 0.495 2.475 0.495 5 1 C4.67 2.32 4.34 3.64 4 5 C2.68 5 1.36 5 0 5 C0 3.35 0 1.7 0 0 Z " fill="#C7D9D6" transform="translate(408,364)"/>
<path d="M0 0 C1.65 0 3.3 0 5 0 C4.67 1.65 4.34 3.3 4 5 C2.68 4.67 1.36 4.34 0 4 C0 2.68 0 1.36 0 0 Z " fill="#C1D5D2" transform="translate(496,361)"/>
<path d="M0 0 C1.98 0.495 1.98 0.495 4 1 C4 2.32 4 3.64 4 5 C2.35 5 0.7 5 -1 5 C-0.67 3.35 -0.34 1.7 0 0 Z " fill="#CCDBDB" transform="translate(503,355)"/>
<path d="M0 0 C1.98 0.495 1.98 0.495 4 1 C4 2.32 4 3.64 4 5 C2.35 5 0.7 5 -1 5 C-0.67 3.35 -0.34 1.7 0 0 Z " fill="#C7D9D8" transform="translate(484,352)"/>
<path d="M0 0 C1.98 0.495 1.98 0.495 4 1 C4 2.32 4 3.64 4 5 C2.35 5 0.7 5 -1 5 C-0.67 3.35 -0.34 1.7 0 0 Z " fill="#BBCFC6" transform="translate(550,342)"/>
<path d="M0 0 C1.32 0.66 2.64 1.32 4 2 C3.67 2.99 3.34 3.98 3 5 C1.35 5 -0.3 5 -2 5 C-1.125 1.125 -1.125 1.125 0 0 Z " fill="#C9D9D2" transform="translate(558,339)"/>
<path d="M0 0 C1.32 0 2.64 0 4 0 C4 1.65 4 3.3 4 5 C2.35 4.67 0.7 4.34 -1 4 C-0.67 2.68 -0.34 1.36 0 0 Z " fill="#D3E3E0" transform="translate(495,341)"/>
<path d="M0 0 C2.475 0.495 2.475 0.495 5 1 C4.67 2.32 4.34 3.64 4 5 C2.68 5 1.36 5 0 5 C0 3.35 0 1.7 0 0 Z " fill="#D1DDD9" transform="translate(564,337)"/>
<path d="M0 0 C1.65 0 3.3 0 5 0 C4.67 1.65 4.34 3.3 4 5 C2.68 4.67 1.36 4.34 0 4 C0 2.68 0 1.36 0 0 Z " fill="#CAD8D2" transform="translate(571,335)"/>
<path d="M0 0 C2.475 0.495 2.475 0.495 5 1 C4.67 2.32 4.34 3.64 4 5 C2.68 5 1.36 5 0 5 C0 3.35 0 1.7 0 0 Z " fill="#C9D5CE" transform="translate(579,332)"/>
<path d="M0 0 C1.98 0.495 1.98 0.495 4 1 C3.67 2.32 3.34 3.64 3 5 C1.68 5 0.36 5 -1 5 C-0.67 3.35 -0.34 1.7 0 0 Z " fill="#C4D5D6" transform="translate(544,537)"/>
<path d="M0 0 C1.98 0.495 1.98 0.495 4 1 C3.67 2.32 3.34 3.64 3 5 C1.68 5 0.36 5 -1 5 C-0.67 3.35 -0.34 1.7 0 0 Z " fill="#D0DEDB" transform="translate(528,534)"/>
<path d="M0 0 C1.98 0.495 1.98 0.495 4 1 C3.67 2.32 3.34 3.64 3 5 C1.68 5 0.36 5 -1 5 C-0.67 3.35 -0.34 1.7 0 0 Z " fill="#C9D8D7" transform="translate(531,526)"/>
<path d="M0 0 C0.99 0.33 1.98 0.66 3 1 C3 2.65 3 4.3 3 6 C1.68 6 0.36 6 -1 6 C-1.042721 4.33388095 -1.04063832 2.66617115 -1 1 C-0.67 0.67 -0.34 0.34 0 0 Z " fill="#CBDDDC" transform="translate(563,521)"/>
<path d="M0 0 C1.32 0 2.64 0 4 0 C3.67 1.65 3.34 3.3 3 5 C1.68 4.67 0.36 4.34 -1 4 C-0.67 2.68 -0.34 1.36 0 0 Z " fill="#D0E1DF" transform="translate(551,512)"/>
<path d="M0 0 C1.98 0.495 1.98 0.495 4 1 C3.67 2.32 3.34 3.64 3 5 C1.68 5 0.36 5 -1 5 C-0.67 3.35 -0.34 1.7 0 0 Z " fill="#BCD1CD" transform="translate(583,504)"/>
<path d="M0 0 C1.32 0 2.64 0 4 0 C3.67 1.65 3.34 3.3 3 5 C1.68 4.67 0.36 4.34 -1 4 C-0.67 2.68 -0.34 1.36 0 0 Z " fill="#CFD9D2" transform="translate(482,420)"/>
<path d="M0 0 C2.475 0.495 2.475 0.495 5 1 C4.67 2.32 4.34 3.64 4 5 C2.68 5 1.36 5 0 5 C0 3.35 0 1.7 0 0 Z " fill="#CBDDD8" transform="translate(407,397)"/>
<path d="M0 0 C1.32 0 2.64 0 4 0 C3.67 1.65 3.34 3.3 3 5 C1.68 4.67 0.36 4.34 -1 4 C-0.67 2.68 -0.34 1.36 0 0 Z " fill="#D8E7E3" transform="translate(446,396)"/>
<path d="M0 0 C1.98 0.495 1.98 0.495 4 1 C4 2.32 4 3.64 4 5 C2.35 4.67 0.7 4.34 -1 4 C-0.67 2.68 -0.34 1.36 0 0 Z " fill="#D3DFE0" transform="translate(402,391)"/>
<path d="M0 0 C1.32 0 2.64 0 4 0 C3.67 1.65 3.34 3.3 3 5 C1.68 4.67 0.36 4.34 -1 4 C-0.67 2.68 -0.34 1.36 0 0 Z " fill="#D0E1DD" transform="translate(490,390)"/>
<path d="M0 0 C1.32 0 2.64 0 4 0 C3.67 1.65 3.34 3.3 3 5 C1.68 4.67 0.36 4.34 -1 4 C-0.67 2.68 -0.34 1.36 0 0 Z " fill="#BCCFCC" transform="translate(465,385)"/>
<path d="M0 0 C2.475 0.495 2.475 0.495 5 1 C4.67 2.32 4.34 3.64 4 5 C2.68 4.67 1.36 4.34 0 4 C0 2.68 0 1.36 0 0 Z " fill="#D0DCD9" transform="translate(459,380)"/>
<path d="M0 0 C1.98 0.495 1.98 0.495 4 1 C3.67 2.32 3.34 3.64 3 5 C1.68 5 0.36 5 -1 5 C-0.67 3.35 -0.34 1.7 0 0 Z " fill="#C6D9D4" transform="translate(478,377)"/>
<path d="M0 0 C1.32 0 2.64 0 4 0 C3.67 1.65 3.34 3.3 3 5 C1.68 4.67 0.36 4.34 -1 4 C-0.67 2.68 -0.34 1.36 0 0 Z " fill="#CDDCD7" transform="translate(469,378)"/>
<path d="M0 0 C1.98 0.495 1.98 0.495 4 1 C3.67 2.32 3.34 3.64 3 5 C1.68 5 0.36 5 -1 5 C-0.67 3.35 -0.34 1.7 0 0 Z " fill="#D1E0E0" transform="translate(499,377)"/>
<path d="M0 0 C1.98 0.495 1.98 0.495 4 1 C4 2.32 4 3.64 4 5 C2.35 4.67 0.7 4.34 -1 4 C-0.67 2.68 -0.34 1.36 0 0 Z " fill="#BCD0C9" transform="translate(457,373)"/>
<path d="M0 0 C1.32 0 2.64 0 4 0 C3.67 1.65 3.34 3.3 3 5 C1.68 4.67 0.36 4.34 -1 4 C-0.67 2.68 -0.34 1.36 0 0 Z " fill="#D6E6E4" transform="translate(476,357)"/>
<path d="M0 0 C1.32 0 2.64 0 4 0 C3.67 1.65 3.34 3.3 3 5 C1.68 4.67 0.36 4.34 -1 4 C-0.67 2.68 -0.34 1.36 0 0 Z " fill="#D3E3DF" transform="translate(412,357)"/>
<path d="M0 0 C1.32 0 2.64 0 4 0 C3.67 1.65 3.34 3.3 3 5 C1.68 4.67 0.36 4.34 -1 4 C-0.67 2.68 -0.34 1.36 0 0 Z " fill="#C9DCD2" transform="translate(529,353)"/>
<path d="M0 0 C1.32 0 2.64 0 4 0 C3.67 1.65 3.34 3.3 3 5 C1.68 4.67 0.36 4.34 -1 4 C-0.67 2.68 -0.34 1.36 0 0 Z " fill="#C2D6CF" transform="translate(536,349)"/>
<path d="M0 0 C1.98 0.495 1.98 0.495 4 1 C3.67 2.32 3.34 3.64 3 5 C1.68 5 0.36 5 -1 5 C-0.67 3.35 -0.34 1.7 0 0 Z " fill="#C1D4CC" transform="translate(543,345)"/>
<path d="M0 0 C1.98 0.495 1.98 0.495 4 1 C4 2.32 4 3.64 4 5 C2.35 4.67 0.7 4.34 -1 4 C-0.67 2.68 -0.34 1.36 0 0 Z " fill="#D1E0DD" transform="translate(512,333)"/>
<path d="M0 0 C0.86625 0.3403125 0.86625 0.3403125 1.75 0.6875 C0.96625 1.14125 0.1825 1.595 -0.625 2.0625 C-4.07851116 4.20038786 -5.56172235 6.06976217 -7.25 9.6875 C-6.76454933 3.25527857 -6.76454933 3.25527857 -4.4375 0.6875 C-2.25 -0.3125 -2.25 -0.3125 0 0 Z " fill="#38717D" transform="translate(356.25,710.3125)"/>
<path d="M0 0 C0.33 0 0.66 0 1 0 C1.268125 0.94875 1.53625 1.8975 1.8125 2.875 C2.74986588 6.25267273 2.74986588 6.25267273 6 8 C4.35 8.33 2.7 8.66 1 9 C-1.125 3.375 -1.125 3.375 0 0 Z " fill="#154E3E" transform="translate(567,518)"/>
<path d="M0 0 C1.98 0.495 1.98 0.495 4 1 C3.67 2.32 3.34 3.64 3 5 C1.68 4.67 0.36 4.34 -1 4 C-0.67 2.68 -0.34 1.36 0 0 Z " fill="#D5DFDA" transform="translate(483,412)"/>
<path d="M0 0 C1.98 0.495 1.98 0.495 4 1 C3.67 2.32 3.34 3.64 3 5 C1.68 4.67 0.36 4.34 -1 4 C-0.67 2.68 -0.34 1.36 0 0 Z " fill="#C9D9D5" transform="translate(473,385)"/>
<path d="M0 0 C1.98 0.495 1.98 0.495 4 1 C3.67 2.32 3.34 3.64 3 5 C1.68 4.67 0.36 4.34 -1 4 C-0.67 2.68 -0.34 1.36 0 0 Z " fill="#D6E3E1" transform="translate(473,371)"/>
<path d="M0 0 C0.66 0.99 1.32 1.98 2 3 C2.99 3.66 3.98 4.32 5 5 C3.02 5.33 1.04 5.66 -1 6 C-1 5.34 -1 4.68 -1 4 C-2.32 4 -3.64 4 -5 4 C-5.33 4.66 -5.66 5.32 -6 6 C-6 5.01 -6 4.02 -6 3 C-5.195625 2.87625 -4.39125 2.7525 -3.5625 2.625 C-2.716875 2.41875 -1.87125 2.2125 -1 2 C-0.67 1.34 -0.34 0.68 0 0 Z " fill="#2D6D5B" transform="translate(488,367)"/>
<path d="M0 0 C1.98 0.495 1.98 0.495 4 1 C3.67 2.32 3.34 3.64 3 5 C1.68 4.67 0.36 4.34 -1 4 C-0.67 2.68 -0.34 1.36 0 0 Z " fill="#C9DED9" transform="translate(510,366)"/>
<path d="M0 0 C1.98 0.495 1.98 0.495 4 1 C3.67 2.32 3.34 3.64 3 5 C1.68 4.67 0.36 4.34 -1 4 C-0.67 2.68 -0.34 1.36 0 0 Z " fill="#CEE1DF" transform="translate(516,361)"/>
<path d="M0 0 C1.98 0.495 1.98 0.495 4 1 C3.67 2.32 3.34 3.64 3 5 C1.68 4.67 0.36 4.34 -1 4 C-0.67 2.68 -0.34 1.36 0 0 Z " fill="#DBEAEB" transform="translate(508,349)"/>
<path d="M0 0 C0.66 0.33 1.32 0.66 2 1 C1.04882866 2.1725131 0.08882991 3.33787015 -0.875 4.5 C-1.40867187 5.1496875 -1.94234375 5.799375 -2.4921875 6.46875 C-2.98976563 6.9740625 -3.48734375 7.479375 -4 8 C-4.66 8 -5.32 8 -6 8 C-4.73058503 4.08597051 -3.48832306 2.20927127 0 0 Z " fill="#B3D0D3" transform="translate(446,744)"/>
<path d="M0 0 C1.32 0 2.64 0 4 0 C4 1.65 4 3.3 4 5 C2.68 5 1.36 5 0 5 C0 3.35 0 1.7 0 0 Z " fill="#D3D7D6" transform="translate(546,566)"/>
<path d="M0 0 C1.74627478 2.61941217 2.38722388 4.03824877 3 7 C2.01 7.33 1.02 7.66 0 8 C0 7.01 0 6.02 0 5 C-0.66 4.67 -1.32 4.34 -2 4 C-1.34 2.68 -0.68 1.36 0 0 Z " fill="#36755F" transform="translate(502,482)"/>
<path d="M0 0 C1.32 0.66 2.64 1.32 4 2 C3.67 2.99 3.34 3.98 3 5 C1.68 5 0.36 5 -1 5 C-0.67 3.35 -0.34 1.7 0 0 Z " fill="#C8D7D5" transform="translate(630,473)"/>
<path d="M0 0 C1.65 0 3.3 0 5 0 C5 1.32 5 2.64 5 4 C3.35 4 1.7 4 0 4 C0 2.68 0 1.36 0 0 Z " fill="#DDE5DF" transform="translate(481,428)"/>
<path d="M0 0 C0.99 0.33 1.98 0.66 3 1 C3.33 3.64 3.66 6.28 4 9 C0.06153846 5.67692308 0.06153846 5.67692308 -0.25 2.25 C-0.1675 1.5075 -0.085 0.765 0 0 Z " fill="#2A6B59" transform="translate(438,402)"/>
<path d="M0 0 C1.32 0 2.64 0 4 0 C4 1.65 4 3.3 4 5 C2.68 5 1.36 5 0 5 C0 3.35 0 1.7 0 0 Z " fill="#D4E2E0" transform="translate(399,384)"/>
<path d="M0 0 C1.32 0 2.64 0 4 0 C4 1.65 4 3.3 4 5 C2.68 5 1.36 5 0 5 C0 3.35 0 1.7 0 0 Z " fill="#D3E5DF" transform="translate(522,357)"/>
<path d="M0 0 C1.65 0 3.3 0 5 0 C5 1.32 5 2.64 5 4 C3.35 4 1.7 4 0 4 C0 2.68 0 1.36 0 0 Z " fill="#BFD5D0" transform="translate(505,319)"/>
<path d="M0 0 C0.99 0.33 1.98 0.66 3 1 C2.25 6.75 2.25 6.75 0 9 C0 6.03 0 3.06 0 0 Z " fill="#1A6049" transform="translate(499,479)"/>
<path d="M0 0 C2.475 0.495 2.475 0.495 5 1 C5 1.99 5 2.98 5 4 C3.35 4 1.7 4 0 4 C0 2.68 0 1.36 0 0 Z " fill="#D3E3E0" transform="translate(413,402)"/>
<path d="M0 0 C1.32 0 2.64 0 4 0 C4 1.65 4 3.3 4 5 C2.68 4.67 1.36 4.34 0 4 C0 2.68 0 1.36 0 0 Z " fill="#CEDBD6" transform="translate(593,324)"/>
<path d="M0 0 C2.56687367 3.8503105 1.83288724 5.58569763 1 10 C0.34 10 -0.32 10 -1 10 C-0.67 6.7 -0.34 3.4 0 0 Z " fill="#367869" transform="translate(498,496)"/>
<path d="M0 0 C2.92879371 0.62759865 5.36095629 1.58622659 8 3 C7.67 3.99 7.34 4.98 7 6 C5.83054208 5.19152271 4.66449539 4.37810888 3.5 3.5625 C2.8503125 3.11003906 2.200625 2.65757812 1.53125 2.19140625 C1.0259375 1.79824219 0.520625 1.40507812 0 1 C0 0.67 0 0.34 0 0 Z " fill="#D6E9D6" transform="translate(420,450)"/>
<path d="M0 0 C0.28875 0.61875 0.5775 1.2375 0.875 1.875 C1.93720042 4.13325765 1.93720042 4.13325765 4 6 C-0.75 7.125 -0.75 7.125 -3 6 C-3 5.34 -3 4.68 -3 4 C-2.01 4 -1.02 4 0 4 C0 2.68 0 1.36 0 0 Z " fill="#387662" transform="translate(403,385)"/>
<path d="M0 0 C0.66 0.33 1.32 0.66 2 1 C1.67 2.32 1.34 3.64 1 5 C-0.98 5 -2.96 5 -5 5 C-4.1875 3.0625 -4.1875 3.0625 -3 1 C-2.01 0.67 -1.02 0.34 0 0 Z " fill="#296B59" transform="translate(470,359)"/>
<path d="M0 0 C0.99 0 1.98 0 3 0 C3 0.66 3 1.32 3 2 C2.34 2 1.68 2 1 2 C0.34 3.32 -0.32 4.64 -1 6 C-2.32 5.67 -3.64 5.34 -5 5 C-4.01 4.67 -3.02 4.34 -2 4 C-0.79117904 1.99983534 -0.79117904 1.99983534 0 0 Z " fill="#205F4D" transform="translate(483,377)"/>
</svg>
