<?xml version="1.0" encoding="UTF-8"?>
<svg version="1.1" xmlns="http://www.w3.org/2000/svg" width="1024" height="1024">
<path d="M0 0 C337.92 0 675.84 0 1024 0 C1024 337.92 1024 675.84 1024 1024 C686.08 1024 348.16 1024 0 1024 C0 686.08 0 348.16 0 0 Z " fill="#D3E3DE" transform="translate(0,0)"/>
<path d="M0 0 C1.82706532 1.65868378 3.64199133 3.33089112 5.44140625 5.01953125 C7.48244233 6.92745628 9.57091786 8.72610319 11.71484375 10.515625 C56.25970607 49.5376487 83.19569612 113.08796768 87.640625 171.12207031 C88.91945292 190.58765819 88.30409517 210.00380136 84.77734375 229.203125 C84.50398193 230.7804541 84.50398193 230.7804541 84.22509766 232.38964844 C81.93012436 245.61498329 79.43757013 258.58837429 74.77734375 271.203125 C74.51115234 271.93563477 74.24496094 272.66814453 73.97070312 273.42285156 C66.14763432 294.67581613 56.096618 314.86152772 42.77734375 333.203125 C42.33648438 333.81220703 41.895625 334.42128906 41.44140625 335.04882812 C36.38628023 341.96515963 30.91672267 348.43442928 25.0859375 354.7109375 C23.05793754 356.90021664 21.09523192 359.12612495 19.15234375 361.390625 C5.12025063 377.49302694 -12.18459075 390.88467979 -30.22265625 402.203125 C-30.87959473 402.61804199 -31.5365332 403.03295898 -32.21337891 403.46044922 C-56.83485237 418.87331384 -84.72937596 429.65875667 -113.22265625 435.203125 C-113.99319336 435.36538574 -114.76373047 435.52764648 -115.55761719 435.69482422 C-129.48135344 438.54246044 -143.51042244 438.46290892 -157.66015625 438.453125 C-158.61141388 438.45253082 -159.56267151 438.45193665 -160.54275513 438.45132446 C-229.07340052 438.28814747 -290.50784808 412.48017022 -339.22265625 364.203125 C-362.15589638 341.05359731 -380.39755742 312.70539934 -392.34082031 282.43017578 C-393.15430428 280.37574588 -393.99368807 278.33409707 -394.83984375 276.29296875 C-405.72566441 249.41002664 -410.67567952 219.23451764 -410.47265625 190.328125 C-410.46955444 189.53742615 -410.46645264 188.74672729 -410.46325684 187.93206787 C-410.41102251 176.567085 -410.08862772 165.43273883 -408.22265625 154.203125 C-408.10438477 153.40503418 -407.98611328 152.60694336 -407.86425781 151.78466797 C-406.1597297 140.30187362 -403.56169099 129.21481666 -400.28515625 118.078125 C-399.96144043 116.97670166 -399.63772461 115.87527832 -399.30419922 114.74047852 C-388.4649597 79.12698708 -368.50370927 46.30311398 -342.62548828 19.703125 C-340.69543039 17.63938054 -338.98521324 15.41008739 -337.22265625 13.203125 C-336.04723633 12.0841663 -334.8387275 10.99879354 -333.59765625 9.953125 C-330.5691427 7.37389643 -327.63407933 4.72609126 -324.72265625 2.015625 C-253.41075636 -61.93783909 -147.80264912 -76.05456559 0 0 Z " fill="#E4F0E8" transform="translate(678.22265625,259.796875)"/>
<path d="M0 0 C17.1628012 -0.55813988 33.46468596 0.98233244 50.33886719 4.08984375 C51.13550781 4.22874023 51.93214844 4.36763672 52.75292969 4.51074219 C90.34450889 11.2259652 124.17960201 33.06260769 151.33886719 59.08984375 C152.46615234 60.15525391 152.46615234 60.15525391 153.61621094 61.2421875 C186.83148566 93.40509708 209.61749449 143.17790975 210.50917053 189.48361206 C210.56636021 193.62323019 210.58598942 197.76235608 210.58886719 201.90234375 C210.58954193 202.77389099 210.59021667 203.64543823 210.59091187 204.543396 C210.57481265 217.63491588 210.0403052 230.24312551 207.33886719 243.08984375 C207.10538574 244.31815918 207.10538574 244.31815918 206.8671875 245.57128906 C201.15025891 275.45679 187.22811322 304.75001579 168.58886719 328.77734375 C168.15340576 329.34146973 167.71794434 329.9055957 167.26928711 330.48681641 C164.27824409 334.23142336 161.08004367 337.14175292 157.33886719 340.08984375 C156.67242188 339.37699219 156.00597656 338.66414063 155.31933594 337.9296875 C139.66845081 321.5272386 119.8832867 312.96031963 97.21386719 312.21484375 C86.94668123 312.18518493 81.75401475 315.10779322 74.18798828 321.62255859 C70.70052977 324.38987119 66.82832517 326.52212622 62.96386719 328.71484375 C62.15860596 329.1749585 61.35334473 329.63507324 60.52368164 330.10913086 C52.93630695 334.39625325 45.19940126 338.33120409 37.33886719 342.08984375 C36.34371094 342.57195312 35.34855469 343.0540625 34.32324219 343.55078125 C17.55188976 351.45727596 17.55188976 351.45727596 8.33886719 351.08984375 C0.31945281 323.23669918 -0.54544999 280.28438401 13.33886719 254.08984375 C16.78256492 252.73178703 20.29623767 253.02209408 23.94824219 253.09765625 C25.25253174 253.11683105 26.55682129 253.13600586 27.90063477 253.15576172 C28.92732773 253.17144196 28.92732773 253.17144196 29.97476196 253.18743896 C41.71646306 253.33964463 52.94060044 253.35882718 64.33886719 250.08984375 C65.40137695 249.79182861 65.40137695 249.79182861 66.48535156 249.48779297 C82.37684199 244.93518788 96.04029058 238.28705529 108.33886719 227.08984375 C108.98210937 226.51621094 109.62535156 225.94257813 110.28808594 225.3515625 C138.8389859 198.46880501 147.5347452 154.51992656 148.72035217 117.08171082 C148.78266032 115.00114111 148.8421064 112.92050225 148.90136719 110.83984375 C148.94469704 109.40103291 148.98831513 107.96223071 149.03222656 106.5234375 C149.13775227 103.04566599 149.23941493 99.56779487 149.33886719 96.08984375 C131.86047109 96.39725699 114.55000133 96.73099029 97.33886719 100.08984375 C96.49243652 100.25468262 95.64600586 100.41952148 94.77392578 100.58935547 C69.66098006 105.66642566 45.22366697 114.59091175 25.33886719 131.08984375 C24.45585938 131.82074219 23.57285156 132.55164063 22.66308594 133.3046875 C7.94028156 146.01679021 -0.90741246 161.43016512 -5.66113281 180.08984375 C-5.84587158 180.78416504 -6.03061035 181.47848633 -6.22094727 182.19384766 C-11.26023265 202.55391346 -6.92953878 223.94288273 1.45214844 242.7421875 C3.10691203 247.12330169 1.92902874 250.27041887 0.53808594 254.55859375 C0.22484375 255.53828125 -0.08839844 256.51796875 -0.41113281 257.52734375 C-0.76175781 258.62304688 -1.11238281 259.71875 -1.47363281 260.84765625 C-4.20089822 270.07304892 -5.79362665 279.66124321 -7.66113281 289.08984375 C-10.4796775 284.86202672 -12.70246487 281.15644642 -12.59863281 275.96484375 C-11.47645089 271.32649181 -10.07965547 266.8090694 -8.59863281 262.2734375 C-4.24947948 247.50443765 -5.83538783 229.81894542 -12.22363281 215.90234375 C-21.63131721 198.70500421 -35.80141189 188.8541052 -53.66113281 182.08984375 C-54.61922852 181.72632813 -54.61922852 181.72632813 -55.59667969 181.35546875 C-72.45153475 175.09360309 -89.29391726 173.04137238 -107.16113281 172.52734375 C-108.56999754 172.48406638 -109.97885188 172.44044944 -111.38769531 172.39648438 C-114.81208741 172.29093804 -118.23654573 172.18882577 -121.66113281 172.08984375 C-120.5308705 204.78627189 -116.38796837 237.56498619 -93.47363281 262.83984375 C-79.35486523 275.86012599 -61.43419959 282.29602327 -42.41113281 282.21484375 C-41.52039063 282.21871094 -40.62964844 282.22257812 -39.71191406 282.2265625 C-33.63985612 282.21774964 -27.69013009 281.80401801 -21.66113281 281.08984375 C-15.38917922 294.09834009 -12.17821454 307.33491927 -10.06005859 321.52685547 C-9.14459962 327.40842729 -8.06162676 333.263307 -7.01831055 339.12329102 C-6.08427049 344.43573109 -5.27895969 349.73114123 -4.66113281 355.08984375 C-6.61739994 355.57737741 -8.57629744 356.05435808 -10.53613281 356.52734375 C-12.17195313 356.92759766 -12.17195313 356.92759766 -13.84082031 357.3359375 C-23.72045232 359.28559903 -33.62760238 359.30649526 -43.66210938 359.33007812 C-46.12828205 359.33971538 -48.59359452 359.37079188 -51.05957031 359.40234375 C-65.63229652 359.50027739 -79.79186092 357.76388591 -93.72363281 353.33984375 C-94.95932007 352.95795898 -94.95932007 352.95795898 -96.2199707 352.56835938 C-109.12850219 348.47332452 -121.44299185 342.89080459 -133.66113281 337.08984375 C-133.66113281 336.42984375 -133.66113281 335.76984375 -133.66113281 335.08984375 C-134.30695313 335.02023437 -134.95277344 334.950625 -135.61816406 334.87890625 C-146.77913479 331.9847906 -157.27995529 324.17886098 -163.23925781 314.40698242 C-164.4269656 312.32359656 -165.54913827 310.21458044 -166.66113281 308.08984375 C-167.11037109 307.25453125 -167.55960937 306.41921875 -168.02246094 305.55859375 C-194.70057732 255.61425614 -202.84353647 197.08601214 -186.84863281 142.33984375 C-183.89463129 132.92294386 -179.99469995 123.94548026 -175.66113281 115.08984375 C-175.31179688 114.37199707 -174.96246094 113.65415039 -174.60253906 112.91455078 C-160.49565419 84.28093327 -139.26331263 59.09418328 -113.66113281 40.08984375 C-113.12085449 39.68878418 -112.58057617 39.28772461 -112.02392578 38.87451172 C-79.33268748 14.88214311 -40.52523123 1.36819129 0 0 Z " fill="#1A5746" transform="translate(508.6611328125,246.91015625)"/>
<path d="M0 0 C1.82706532 1.65868378 3.64199133 3.33089112 5.44140625 5.01953125 C7.48244233 6.92745628 9.57091786 8.72610319 11.71484375 10.515625 C56.25970607 49.5376487 83.19569612 113.08796768 87.640625 171.12207031 C88.91945292 190.58765819 88.30409517 210.00380136 84.77734375 229.203125 C84.50398193 230.7804541 84.50398193 230.7804541 84.22509766 232.38964844 C81.93012436 245.61498329 79.43757013 258.58837429 74.77734375 271.203125 C74.51115234 271.93563477 74.24496094 272.66814453 73.97070312 273.42285156 C66.14763432 294.67581613 56.096618 314.86152772 42.77734375 333.203125 C42.33648438 333.81220703 41.895625 334.42128906 41.44140625 335.04882812 C36.38628023 341.96515963 30.91672267 348.43442928 25.0859375 354.7109375 C23.05793754 356.90021664 21.09523192 359.12612495 19.15234375 361.390625 C5.12025063 377.49302694 -12.18459075 390.88467979 -30.22265625 402.203125 C-30.87959473 402.61804199 -31.5365332 403.03295898 -32.21337891 403.46044922 C-56.83485237 418.87331384 -84.72937596 429.65875667 -113.22265625 435.203125 C-113.99319336 435.36538574 -114.76373047 435.52764648 -115.55761719 435.69482422 C-129.48135344 438.54246044 -143.51042244 438.46290892 -157.66015625 438.453125 C-158.61141388 438.45253082 -159.56267151 438.45193665 -160.54275513 438.45132446 C-229.07340052 438.28814747 -290.50784808 412.48017022 -339.22265625 364.203125 C-362.15589638 341.05359731 -380.39755742 312.70539934 -392.34082031 282.43017578 C-393.15430428 280.37574588 -393.99368807 278.33409707 -394.83984375 276.29296875 C-405.72566441 249.41002664 -410.67567952 219.23451764 -410.47265625 190.328125 C-410.46955444 189.53742615 -410.46645264 188.74672729 -410.46325684 187.93206787 C-410.41102251 176.567085 -410.08862772 165.43273883 -408.22265625 154.203125 C-408.10438477 153.40503418 -407.98611328 152.60694336 -407.86425781 151.78466797 C-406.1597297 140.30187362 -403.56169099 129.21481666 -400.28515625 118.078125 C-399.96144043 116.97670166 -399.63772461 115.87527832 -399.30419922 114.74047852 C-388.4649597 79.12698708 -368.50370927 46.30311398 -342.62548828 19.703125 C-340.69543039 17.63938054 -338.98521324 15.41008739 -337.22265625 13.203125 C-336.04723633 12.0841663 -334.8387275 10.99879354 -333.59765625 9.953125 C-330.5691427 7.37389643 -327.63407933 4.72609126 -324.72265625 2.015625 C-253.41075636 -61.93783909 -147.80264912 -76.05456559 0 0 Z M-202.22265625 -42.796875 C-204.15818359 -42.48943359 -204.15818359 -42.48943359 -206.1328125 -42.17578125 C-242.4928641 -35.80584838 -279.90434618 -18.38911448 -308.22265625 5.203125 C-309.19074219 5.97011719 -310.15882813 6.73710937 -311.15625 7.52734375 C-326.3620867 19.86634754 -341.13073438 34.0044251 -352.22265625 50.203125 C-352.83343018 51.07928467 -352.83343018 51.07928467 -353.45654297 51.97314453 C-367.43502365 72.06226342 -379.94657769 94.28953643 -386.58203125 117.9765625 C-387.19097312 120.09300679 -387.90908549 122.13368534 -388.66015625 124.203125 C-390.14221085 128.61825101 -391.19894195 133.10207684 -392.22265625 137.640625 C-392.45359985 138.64899414 -392.45359985 138.64899414 -392.68920898 139.67773438 C-393.23812663 142.1795923 -393.7319923 144.68915201 -394.22265625 147.203125 C-394.47998535 148.44739258 -394.73731445 149.69166016 -395.00244141 150.97363281 C-397.28164759 162.65390909 -397.68676973 174.08990097 -397.61376953 185.97021484 C-397.59770961 189.06783307 -397.61370072 192.16414011 -397.6328125 195.26171875 C-397.65192738 212.36299791 -395.75541833 228.76668758 -391.41015625 245.328125 C-391.15226318 246.329646 -390.89437012 247.33116699 -390.62866211 248.36303711 C-386.79566602 262.9563409 -382.01575394 276.70990358 -375.22265625 290.203125 C-374.58432861 291.49742432 -374.58432861 291.49742432 -373.93310547 292.81787109 C-367.35589113 306.11662737 -360.20973883 318.39919563 -351.22265625 330.203125 C-350.33196647 331.4009935 -349.44133975 332.5989089 -348.55078125 333.796875 C-310.68325859 383.98291744 -253.06539506 416.23311624 -191.09765625 425.140625 C-169.79887238 427.83233535 -146.38324869 427.7944995 -125.22265625 424.203125 C-124.34270996 424.0577832 -123.46276367 423.91244141 -122.55615234 423.76269531 C-78.64074407 416.23176273 -38.4832832 396.68892679 -5.22265625 367.203125 C-4.67722168 366.72085449 -4.13178711 366.23858398 -3.56982422 365.74169922 C20.46232614 344.36176152 38.93109894 318.82841588 52.92675781 289.92626953 C54.02788888 287.69556257 55.22280383 285.51816249 56.40234375 283.328125 C61.8313253 272.45188251 64.9155107 260.26844625 67.91796875 248.53515625 C68.49293134 246.30586949 69.11729427 244.08876982 69.7890625 241.88671875 C70.98283059 237.4372195 71.68368703 233.00803304 72.33984375 228.453125 C72.52836914 227.20789063 72.52836914 227.20789063 72.72070312 225.9375 C74.41366111 214.45020395 74.9638217 203.14981088 74.96264648 191.55395508 C74.96481769 189.16924761 74.98299431 186.78501585 75.00195312 184.40039062 C75.05650082 169.8625851 73.95812904 155.49175174 70.52734375 141.328125 C70.30973389 140.41087646 70.09212402 139.49362793 69.86791992 138.54858398 C69.19270375 135.76077234 68.49217463 132.98102476 67.77734375 130.203125 C67.56094238 129.35991699 67.34454102 128.51670898 67.12158203 127.64794922 C59.99106669 100.56052407 47.3442408 74.74086032 30.77734375 52.203125 C30.28347168 51.51460449 29.78959961 50.82608398 29.28076172 50.11669922 C22.14238792 40.20543759 14.21311317 31.2677378 5.58984375 22.640625 C4.6877417 21.73683105 3.78563965 20.83303711 2.85620117 19.90185547 C-30.30125193 -12.70975871 -73.13686256 -34.00528647 -118.70507812 -42.32666016 C-121.01559259 -42.75820116 -123.31295729 -43.23256821 -125.61328125 -43.71484375 C-150.22841663 -48.49741512 -177.6761921 -47.21491955 -202.22265625 -42.796875 Z " fill="#95C26D" transform="translate(678.22265625,259.796875)"/>
<path d="M0 0 C0.7141883 34.28103852 -5.45606642 74.34070862 -29 101 C-29.68707031 101.81726563 -30.37414062 102.63453125 -31.08203125 103.4765625 C-45.91801623 120.67695139 -67.43691209 131.6310126 -90.11791992 133.80151367 C-95.28531912 134.15738792 -100.44799618 134.10338764 -105.625 134.0625 C-106.72457031 134.05798828 -107.82414063 134.05347656 -108.95703125 134.04882812 C-111.63808003 134.03717139 -114.31900932 134.02081017 -117 134 C-117.33 133.34 -117.66 132.68 -118 132 C-117.35424805 130.2668457 -117.35424805 130.2668457 -116.26171875 128.17578125 C-115.65734985 127.01477905 -115.65734985 127.01477905 -115.04077148 125.83032227 C-114.59419189 124.99944092 -114.1476123 124.16855957 -113.6875 123.3125 C-113.2325415 122.45906006 -112.77758301 121.60562012 -112.30883789 120.72631836 C-105.62106181 108.38576545 -97.57984143 97.08755243 -89 86 C-88.401875 85.20722656 -87.80375 84.41445313 -87.1875 83.59765625 C-73.41485675 65.75852135 -56.69502214 48.60381616 -38 36 C-56.02978031 41.34215713 -72.19689937 54.64106154 -85.47705078 67.52392578 C-86.93047074 68.93261078 -88.40040739 70.32419475 -89.87109375 71.71484375 C-104.89096487 86.22340011 -116.65535416 103.94224103 -127 122 C-133.95854486 115.04145514 -133.39797382 100.38804305 -133.4375 91.25 C-133.4473291 90.22189209 -133.4571582 89.19378418 -133.46728516 88.13452148 C-133.35369349 77.82978149 -131.20024022 68.22254355 -126.4375 59.0625 C-126.09162842 58.39065674 -125.74575684 57.71881348 -125.3894043 57.02661133 C-111.32333079 30.62034376 -86.07200109 16.77779227 -58.25878906 8.24731445 C-38.86505846 2.46213258 -20.22207766 -0.24561228 0 0 Z " fill="#8CBD60" transform="translate(646,355)"/>
<path d="M0 0 C11.19160334 4.2414459 22.34280209 10.15921801 29.30859375 20.25390625 C19.47207881 42.02793932 -15.93017446 56.64098252 -36.5390625 64.71484375 C-42.18440751 66.84036177 -47.86378056 68.69280894 -53.69140625 70.25390625 C-54.93019531 70.59035156 -56.16898438 70.92679688 -57.4453125 71.2734375 C-73.71790744 75.58348493 -89.21841604 77.7558982 -106.04638672 77.64501953 C-108.92464135 77.62899956 -111.80147621 77.64493002 -114.6796875 77.6640625 C-161.02626028 77.71717598 -207.03264662 60.28057562 -241.69140625 29.25390625 C-242.02140625 28.59390625 -242.35140625 27.93390625 -242.69140625 27.25390625 C-238.82357407 28.49229112 -235.14437657 29.90440056 -231.44140625 31.56640625 C-191.15237702 48.45699804 -146.21377817 47.54841791 -104.69140625 36.25390625 C-103.61729492 35.96314209 -103.61729492 35.96314209 -102.52148438 35.66650391 C-79.18902576 29.22640542 -52.83194191 17.62818021 -34.0703125 2.08203125 C-24.09889045 -6.10468636 -11.54359358 -3.76051232 0 0 Z " fill="#61B3D3" transform="translate(626.69140625,574.74609375)"/>
<path d="M0 0 C20.70061437 -0.8207292 43.36816399 2.76725984 62 12 C63.3921875 12.65935547 63.3921875 12.65935547 64.8125 13.33203125 C71.87750859 16.89397308 77.41189369 21.43103104 83 27 C83.97453125 27.93972656 83.97453125 27.93972656 84.96875 28.8984375 C94.71303121 39.02736139 97.18046556 50.82748064 97.1875 64.3125 C97.19974609 65.53646484 97.21199219 66.76042969 97.22460938 68.02148438 C97.22654297 69.20677734 97.22847656 70.39207031 97.23046875 71.61328125 C97.23457764 72.69391846 97.23868652 73.77455566 97.24291992 74.88793945 C96.9841788 78.20268621 96.17447575 80.90074556 95 84 C94.34 84 93.68 84 93 84 C91.72359257 82.25617577 90.52985118 80.45159728 89.375 78.625 C83.09769185 68.98848371 75.81901119 60.41620032 68 52 C67.38769531 51.32195312 66.77539062 50.64390625 66.14453125 49.9453125 C55.69694102 38.85170922 42.467723 31.75016625 29 25 C31.44335843 26.9607734 33.88962013 28.914574 36.3671875 30.83203125 C56.03583794 46.36475052 74.84607861 67.34223028 86 90 C86 90.99 86 91.98 86 93 C69.77947959 97.00627311 52.24613259 93.45597723 37.77734375 85.6875 C24.04281403 77.34246928 16.40570838 66.07886883 9.828125 51.79492188 C9.15594692 50.33800759 8.45693099 48.8934969 7.75 47.453125 C2.15611499 35.12909708 -0.21546957 18.96132184 -0.0625 5.5 C-0.05347656 4.4584375 -0.04445313 3.416875 -0.03515625 2.34375 C-0.02355469 1.5703125 -0.01195312 0.796875 0 0 Z " fill="#8DBD62" transform="translate(396,427)"/>
<path d="M0 0 C34.32 0 68.64 0 104 0 C104 0.33 104 0.66 104 1 C103.16359985 1.13462646 103.16359985 1.13462646 102.31030273 1.27197266 C71.17924759 6.40771735 43.05983949 20.79995465 24.1875 46.9375 C23.09701461 48.60705207 22.03628559 50.29627623 21 52 C20.33355469 53.09183594 19.66710937 54.18367188 18.98046875 55.30859375 C10.62570774 69.30746858 6.21140247 82.84447642 4 99 C2.68 98.67 1.36 98.34 0 98 C0 65.66 0 33.32 0 0 Z " fill="#FCFCFC" transform="translate(0,0)"/>
<path d="M0 0 C2.8471146 2.8471146 3.15999458 6.1870103 4 10 C4.17660156 10.77093994 4.35320313 11.54187988 4.53515625 12.33618164 C5.44745263 16.35662109 6.27272668 20.37905515 7 24.4375 C8.76532458 33.42386226 13.016391 41.25347932 17.75 49 C18.27859619 49.87213135 18.80719238 50.7442627 19.35180664 51.64282227 C24.40998864 59.87054188 29.889582 67.397469 37 74 C37.69480469 74.67675781 38.38960937 75.35351562 39.10546875 76.05078125 C45.77907004 82.36364734 53.18687694 88.06229231 62 91 C62 91.66 62 92.32 62 93 C63.28003906 93.40605469 63.28003906 93.40605469 64.5859375 93.8203125 C68.02458625 95.00849548 71.29043848 96.42224521 74.625 97.875 C83.75004963 101.70167161 93.29157896 103.32443495 103 105 C103 105.33 103 105.66 103 106 C69.01 106 35.02 106 0 106 C0 71.02 0 36.04 0 0 Z " fill="#FCFDFD" transform="translate(0,918)"/>
<path d="M0 0 C0.33 0 0.66 0 1 0 C1 29.7 1 59.4 1 90 C-31.01 90 -63.02 90 -96 90 C-95.505 89.01 -95.505 89.01 -95 88 C-92.3046875 87.4375 -92.3046875 87.4375 -88.875 87 C-61.58963638 83.14026412 -35.81087351 66.67020776 -19.25 44.9375 C-17.8217306 42.9666901 -16.40424371 40.98800019 -15 39 C-14.11441406 37.77216797 -14.11441406 37.77216797 -13.2109375 36.51953125 C-9.94643333 31.84791321 -7.78917776 27.3892203 -6 22 C-5.505 20.80375 -5.01 19.6075 -4.5 18.375 C-2.25644252 12.46340411 -1.22471863 6.18439476 0 0 Z " fill="#FCFDFD" transform="translate(1023,934)"/>
<path d="M0 0 C31.35 0 62.7 0 95 0 C95 27.72 95 55.44 95 84 C93.21390878 80.42781756 91.79591979 76.91443767 90.375 73.1875 C85.31271874 60.35443571 79.2066275 49.36767644 70 39 C69.38769531 38.24460938 68.77539062 37.48921875 68.14453125 36.7109375 C50.8679834 15.86120172 25.72067268 6.31956707 0 1 C0 0.67 0 0.34 0 0 Z " fill="#FDFDFD" transform="translate(929,0)"/>
<path d="M0 0 C0.66 0 1.32 0 2 0 C2.51046875 1.17755859 2.51046875 1.17755859 3.03125 2.37890625 C8.05320028 13.26425062 13.78827324 18.82155554 25 23 C25 23.66 25 24.32 25 25 C24.21496094 25.3403125 23.42992187 25.680625 22.62109375 26.03125 C11.73574938 31.05320028 6.17844446 36.78827324 2 48 C1.34 48 0.68 48 0 48 C-0.3403125 47.21496094 -0.680625 46.42992187 -1.03125 45.62109375 C-6.05320028 34.73574938 -11.78827324 29.17844446 -23 25 C-23 24.34 -23 23.68 -23 23 C-22.21496094 22.6596875 -21.42992187 22.319375 -20.62109375 21.96875 C-9.73574938 16.94679972 -4.17844446 11.21172676 0 0 Z " fill="#E6EFF5" transform="translate(967,944)"/>
<path d="M0 0 C2.05070859 3.71035183 3.27380033 7.66843961 4.5625 11.6875 C5.6918803 16.19050218 5.6918803 16.19050218 8 20 C7.6996125 24.4056833 6.63062192 28.25091775 5.25 32.4375 C1.95565468 42.73232913 0.09746415 53.41039549 -2 64 C-4.81854469 59.77218297 -7.04133205 56.06660267 -6.9375 50.875 C-5.81531808 46.23664806 -4.41852266 41.71922565 -2.9375 37.18359375 C-1.2678891 31.51387341 -0.83552926 26.13677876 -0.875 20.25 C-0.87693359 19.55132812 -0.87886719 18.85265625 -0.88085938 18.1328125 C-0.92584519 12.71452121 -1.27668867 7.37316986 -2 2 C-1.34 2 -0.68 2 0 2 C0 1.34 0 0.68 0 0 Z " fill="#245F50" transform="translate(503,472)"/>
<path d="M0 0 C1.65 0 3.3 0 5 0 C5.33 1.98 5.66 3.96 6 6 C7.65 6 9.3 6 11 6 C12 9 12 9 12 13 C12.66 13 13.32 13 14 13 C14 11.35 14 9.7 14 8 C14.66 7.67 15.32 7.34 16 7 C18.625 7.9375 18.625 7.9375 21 9 C20.67 10.65 20.34 12.3 20 14 C19.01 14.33 18.02 14.66 17 15 C15.79117904 17.00016466 15.79117904 17.00016466 15 19 C13.329375 18.690625 13.329375 18.690625 11.625 18.375 C10.42875 18.25125 9.2325 18.1275 8 18 C7.34 18.66 6.68 19.32 6 20 C5.01 20 4.02 20 3 20 C3 21.98 3 23.96 3 26 C1.68 26.33 0.36 26.66 -1 27 C-2.05404945 23.01803543 -1.84098656 20.01804691 -1 16 C-0.34 16 0.32 16 1 16 C1 15.01 1 14.02 1 13 C-0.32 12.67 -1.64 12.34 -3 12 C-2.67 10.35 -2.34 8.7 -2 7 C-1.01 6.67 -0.02 6.34 1 6 C0.67 5.67 0.34 5.34 0 5 C-0.04063832 3.33382885 -0.042721 1.66611905 0 0 Z " fill="#1B5244" transform="translate(471,365)"/>
<path d="M0 0 C1.98 0.66 3.96 1.32 6 2 C5.67 3.65 5.34 5.3 5 7 C4.01 7.33 3.02 7.66 2 8 C0.79117904 10.00016466 0.79117904 10.00016466 0 12 C-1.65 11.67 -3.3 11.34 -5 11 C-5 9.35 -5 7.7 -5 6 C-6.32 5.67 -7.64 5.34 -9 5 C-9 3.68 -9 2.36 -9 1 C-6.03 1.495 -6.03 1.495 -3 2 C-3 3.32 -3 4.64 -3 6 C-2.34 6 -1.68 6 -1 6 C-1.020625 5.195625 -1.04125 4.39125 -1.0625 3.5625 C-1 1 -1 1 0 0 Z " fill="#377261" transform="translate(486,372)"/>
<path d="M0 0 C0.66 0.66 1.32 1.32 2 2 C1.625 4.125 1.625 4.125 1 6 C-3.875 5.125 -3.875 5.125 -5 4 C-5.33 5.32 -5.66 6.64 -6 8 C-7.65 8 -9.3 8 -11 8 C-11.33 6.35 -11.66 4.7 -12 3 C-7.81168576 0.60667758 -4.84749424 -0.55085162 0 0 Z " fill="#467D6D" transform="translate(582,507)"/>
<path d="M0 0 C1.32 0.66 2.64 1.32 4 2 C4 3.32 4 4.64 4 6 C1.69 6 -0.62 6 -3 6 C-3 6.66 -3 7.32 -3 8 C-4.65 8 -6.3 8 -8 8 C-8.38218767 6.34385343 -8.71395102 4.67542976 -9 3 C-8.67 2.67 -8.34 2.34 -8 2 C-7.21625 2.020625 -6.4325 2.04125 -5.625 2.0625 C-2.76337022 2.22844642 -2.76337022 2.22844642 0 0 Z " fill="#487969" transform="translate(575,521)"/>
<path d="M0 0 C1.65 0 3.3 0 5 0 C5.33 1.98 5.66 3.96 6 6 C7.65 6 9.3 6 11 6 C11 6.99 11 7.98 11 9 C8.36 9 5.72 9 3 9 C2.67 9.66 2.34 10.32 2 11 C2 10.01 2 9.02 2 8 C0.68 7.67 -0.64 7.34 -2 7 C-1.01 6.67 -0.02 6.34 1 6 C0.67 5.67 0.34 5.34 0 5 C-0.04063832 3.33382885 -0.042721 1.66611905 0 0 Z " fill="#3D7666" transform="translate(471,365)"/>
<path d="M0 0 C1.57554035 2.88628401 2.46276373 5.53342384 3.125 8.75 C3.29257812 9.54921875 3.46015625 10.3484375 3.6328125 11.171875 C3.81457031 12.07679688 3.81457031 12.07679688 4 13 C2.35 12.67 0.7 12.34 -1 12 C-1.33 8.7 -1.66 5.4 -2 2 C-1.34 2 -0.68 2 0 2 C0 1.34 0 0.68 0 0 Z " fill="#3B7160" transform="translate(503,472)"/>
<path d="M0 0 C2.475 0.495 2.475 0.495 5 1 C5.33 4.63 5.66 8.26 6 12 C5.34 12 4.68 12 4 12 C3.3291288 10.3767313 2.66342971 8.75132422 2 7.125 C1.62875 6.22007812 1.2575 5.31515625 0.875 4.3828125 C0 2 0 2 0 0 Z " fill="#1C5B49" transform="translate(497,462)"/>
<path d="M0 0 C2.0625 0.4375 2.0625 0.4375 4 1 C4.33 2.32 4.66 3.64 5 5 C3.35 5.33 1.7 5.66 0 6 C-0.38218767 4.34385343 -0.71395102 2.67542976 -1 1 C-0.67 0.67 -0.34 0.34 0 0 Z " fill="#BACDC7" transform="translate(590,523)"/>
<path d="M0 0 C1.67542976 0.28604898 3.34385343 0.61781233 5 1 C4.67 2.32 4.34 3.64 4 5 C2.68 5.33 1.36 5.66 0 6 C-0.38218767 4.34385343 -0.71395102 2.67542976 -1 1 C-0.67 0.67 -0.34 0.34 0 0 Z " fill="#B5CAC3" transform="translate(563,511)"/>
<path d="M0 0 C2.0625 0.4375 2.0625 0.4375 4 1 C3.67 2.65 3.34 4.3 3 6 C1.35 5.67 -0.3 5.34 -2 5 C-1.125 1.125 -1.125 1.125 0 0 Z " fill="#B7C7C5" transform="translate(442,409)"/>
<path d="M0 0 C1.67542976 0.28604898 3.34385343 0.61781233 5 1 C4.67 2.32 4.34 3.64 4 5 C2.68 5 1.36 5 0 5 C-0.5625 3.0625 -0.5625 3.0625 -1 1 C-0.67 0.67 -0.34 0.34 0 0 Z " fill="#CADBD4" transform="translate(584,548)"/>
<path d="M0 0 C1.32 0.66 2.64 1.32 4 2 C3.67 3.32 3.34 4.64 3 6 C1.35 5.67 -0.3 5.34 -2 5 C-1.125 1.125 -1.125 1.125 0 0 Z " fill="#BFCFCA" transform="translate(459,397)"/>
<path d="M0 0 C2.0625 0.4375 2.0625 0.4375 4 1 C3.67 2.65 3.34 4.3 3 6 C1.68 5.67 0.36 5.34 -1 5 C-1 1 -1 1 0 0 Z " fill="#B8CAC6" transform="translate(422,387)"/>
<path d="M0 0 C1.32 0.66 2.64 1.32 4 2 C4 2.99 4 3.98 4 5 C2.35 5.33 0.7 5.66 -1 6 C-1.625 4.125 -1.625 4.125 -2 2 C-1.34 1.34 -0.68 0.68 0 0 Z " fill="#C0D0CA" transform="translate(467,396)"/>
<path d="M0 0 C1.98 0.495 1.98 0.495 4 1 C4 2.32 4 3.64 4 5 C2.68 5.33 1.36 5.66 0 6 C-1.125 2.25 -1.125 2.25 0 0 Z " fill="#B5C9C5" transform="translate(501,362)"/>
<path d="M0 0 C1.98 0.495 1.98 0.495 4 1 C3.67 2.65 3.34 4.3 3 6 C1.68 5.67 0.36 5.34 -1 5 C-0.67 3.35 -0.34 1.7 0 0 Z " fill="#C9D8D3" transform="translate(544,554)"/>
<path d="M0 0 C1.98 0.495 1.98 0.495 4 1 C3.67 2.65 3.34 4.3 3 6 C1.68 5.67 0.36 5.34 -1 5 C-0.67 3.35 -0.34 1.7 0 0 Z " fill="#BCCDC7" transform="translate(535,528)"/>
<path d="M0 0 C1.65 0.33 3.3 0.66 5 1 C4.67 2.32 4.34 3.64 4 5 C2.35 4.67 0.7 4.34 -1 4 C-0.67 2.68 -0.34 1.36 0 0 Z " fill="#C8D4CF" transform="translate(540,522)"/>
<path d="M0 0 C1.65 0.33 3.3 0.66 5 1 C4.67 2.32 4.34 3.64 4 5 C2.35 4.67 0.7 4.34 -1 4 C-0.67 2.68 -0.34 1.36 0 0 Z " fill="#C1D4CD" transform="translate(555,514)"/>
<path d="M0 0 C1.65 0.33 3.3 0.66 5 1 C4.67 2.32 4.34 3.64 4 5 C2.35 4.67 0.7 4.34 -1 4 C-0.67 2.68 -0.34 1.36 0 0 Z " fill="#BDD0C9" transform="translate(587,506)"/>
<path d="M0 0 C3.63 1.65 7.26 3.3 11 5 C10.01 6.485 10.01 6.485 9 8 C7.49460339 7.05016642 5.99579653 6.08988109 4.5 5.125 C3.6646875 4.59132813 2.829375 4.05765625 1.96875 3.5078125 C1.3190625 3.01023437 0.669375 2.51265625 0 2 C0 1.34 0 0.68 0 0 Z " fill="#D7E9D3" transform="translate(424,451)"/>
<path d="M0 0 C1.65 0.33 3.3 0.66 5 1 C4.67 2.32 4.34 3.64 4 5 C2.35 4.67 0.7 4.34 -1 4 C-0.67 2.68 -0.34 1.36 0 0 Z " fill="#BECCCB" transform="translate(449,411)"/>
<path d="M0 0 C0 1.32 0 2.64 0 4 C-1.65 4 -3.3 4 -5 4 C-5.33 2.68 -5.66 1.36 -6 0 C-3.50907189 -1.24546405 -2.58919267 -0.7767578 0 0 Z " fill="#C4CFCD" transform="translate(462,413)"/>
<path d="M0 0 C2.0625 0.4375 2.0625 0.4375 4 1 C3.67 2.32 3.34 3.64 3 5 C1.68 5 0.36 5 -1 5 C-1 1 -1 1 0 0 Z " fill="#C1D0CE" transform="translate(434,408)"/>
<path d="M0 0 C1.65 0.33 3.3 0.66 5 1 C4.67 2.32 4.34 3.64 4 5 C2.35 4.67 0.7 4.34 -1 4 C-0.67 2.68 -0.34 1.36 0 0 Z " fill="#CBD8D6" transform="translate(450,398)"/>
<path d="M0 0 C1.65 0.33 3.3 0.66 5 1 C4.67 2.32 4.34 3.64 4 5 C2.35 4.67 0.7 4.34 -1 4 C-0.67 2.68 -0.34 1.36 0 0 Z " fill="#C7D6D1" transform="translate(477,387)"/>
<path d="M0 0 C1.98 0.495 1.98 0.495 4 1 C3.67 2.65 3.34 4.3 3 6 C1.68 5.67 0.36 5.34 -1 5 C-0.67 3.35 -0.34 1.7 0 0 Z " fill="#BCCFCA" transform="translate(474,379)"/>
<path d="M0 0 C1.98 0.495 1.98 0.495 4 1 C3.67 2.65 3.34 4.3 3 6 C1.68 5.67 0.36 5.34 -1 5 C-0.67 3.35 -0.34 1.7 0 0 Z " fill="#C4D6CF" transform="translate(495,367)"/>
<path d="M0 0 C1.65 0.33 3.3 0.66 5 1 C4.67 2.32 4.34 3.64 4 5 C2.35 4.67 0.7 4.34 -1 4 C-0.67 2.68 -0.34 1.36 0 0 Z " fill="#C1D3D0" transform="translate(413,366)"/>
<path d="M0 0 C1.98 0.495 1.98 0.495 4 1 C3.67 2.65 3.34 4.3 3 6 C1.68 5.67 0.36 5.34 -1 5 C-0.67 3.35 -0.34 1.7 0 0 Z " fill="#C4D5D0" transform="translate(417,358)"/>
<path d="M0 0 C1.98 0.495 1.98 0.495 4 1 C3.67 2.65 3.34 4.3 3 6 C1.68 5.67 0.36 5.34 -1 5 C-0.67 3.35 -0.34 1.7 0 0 Z " fill="#C6D7D2" transform="translate(471,356)"/>
<path d="M0 0 C1.98 0.495 1.98 0.495 4 1 C3.67 2.65 3.34 4.3 3 6 C1.68 5.67 0.36 5.34 -1 5 C-0.67 3.35 -0.34 1.7 0 0 Z " fill="#C7D5D2" transform="translate(517,334)"/>
<path d="M0 0 C1.32 0.66 2.64 1.32 4 2 C3.67 3.32 3.34 4.64 3 6 C1.68 6 0.36 6 -1 6 C-1.042721 4.33388095 -1.04063832 2.66617115 -1 1 C-0.67 0.67 -0.34 0.34 0 0 Z " fill="#BED4CD" transform="translate(580,507)"/>
<path d="M0 0 C1.65 0 3.3 0 5 0 C5 1.65 5 3.3 5 5 C3.35 5 1.7 5 0 5 C0 3.35 0 1.7 0 0 Z " fill="#D2E1DE" transform="translate(471,365)"/>
<path d="M0 0 C1.32 0.33 2.64 0.66 4 1 C3.67 2.32 3.34 3.64 3 5 C1.35 4.67 -0.3 4.34 -2 4 C-1.34 2.68 -0.68 1.36 0 0 Z " fill="#CEDCD7" transform="translate(583,521)"/>
<path d="M0 0 C1.32 0 2.64 0 4 0 C4 1.65 4 3.3 4 5 C2.35 5 0.7 5 -1 5 C-0.67 3.35 -0.34 1.7 0 0 Z " fill="#D1DED8" transform="translate(547,517)"/>
<path d="M0 0 C1.65 0 3.3 0 5 0 C5 1.65 5 3.3 5 5 C3.35 4.67 1.7 4.34 0 4 C0 2.68 0 1.36 0 0 Z " fill="#C4D5CF" transform="translate(594,504)"/>
<path d="M0 0 C1.65 0 3.3 0 5 0 C5 1.65 5 3.3 5 5 C3.35 4.67 1.7 4.34 0 4 C0 2.68 0 1.36 0 0 Z " fill="#D4E0D9" transform="translate(609,498)"/>
<path d="M0 0 C1.32 0 2.64 0 4 0 C4 1.65 4 3.3 4 5 C2.35 5 0.7 5 -1 5 C-0.67 3.35 -0.34 1.7 0 0 Z " fill="#CEDCD7" transform="translate(617,493)"/>
<path d="M0 0 C1.65 0.33 3.3 0.66 5 1 C4.67 2.32 4.34 3.64 4 5 C2.68 4.67 1.36 4.34 0 4 C0 2.68 0 1.36 0 0 Z " fill="#C9DBD5" transform="translate(477,373)"/>
<path d="M0 0 C1.65 0 3.3 0 5 0 C4.67 1.65 4.34 3.3 4 5 C2.68 5 1.36 5 0 5 C0 3.35 0 1.7 0 0 Z " fill="#D1DEDD" transform="translate(494,349)"/>
<path d="M0 0 C1.32 0 2.64 0 4 0 C4 1.65 4 3.3 4 5 C2.35 4.67 0.7 4.34 -1 4 C-0.67 2.68 -0.34 1.36 0 0 Z " fill="#CEDCD8" transform="translate(592,545)"/>
<path d="M0 0 C1.65 0 3.3 0 5 0 C4.67 1.65 4.34 3.3 4 5 C2.68 4.67 1.36 4.34 0 4 C0 2.68 0 1.36 0 0 Z " fill="#D5E0DC" transform="translate(544,547)"/>
<path d="M0 0 C1.65 0 3.3 0 5 0 C4.67 1.65 4.34 3.3 4 5 C2.68 4.67 1.36 4.34 0 4 C0 2.68 0 1.36 0 0 Z " fill="#D7E4DF" transform="translate(596,538)"/>
<path d="M0 0 C2.475 0.495 2.475 0.495 5 1 C4.67 2.32 4.34 3.64 4 5 C2.68 5 1.36 5 0 5 C0 3.35 0 1.7 0 0 Z " fill="#C2D1CD" transform="translate(548,539)"/>
<path d="M0 0 C1.98 0.495 1.98 0.495 4 1 C4 2.32 4 3.64 4 5 C2.35 5 0.7 5 -1 5 C-0.67 3.35 -0.34 1.7 0 0 Z " fill="#D0DBD7" transform="translate(532,536)"/>
<path d="M0 0 C2.475 0.495 2.475 0.495 5 1 C4.67 2.32 4.34 3.64 4 5 C2.68 5 1.36 5 0 5 C0 3.35 0 1.7 0 0 Z " fill="#C9DBD6" transform="translate(553,533)"/>
<path d="M0 0 C2.475 0.495 2.475 0.495 5 1 C4.67 2.32 4.34 3.64 4 5 C2.68 5 1.36 5 0 5 C0 3.35 0 1.7 0 0 Z " fill="#D7E4E2" transform="translate(559,528)"/>
<path d="M0 0 C1.98 0.495 1.98 0.495 4 1 C4 2.32 4 3.64 4 5 C2.35 5 0.7 5 -1 5 C-0.67 3.35 -0.34 1.7 0 0 Z " fill="#C5D9D3" transform="translate(571,509)"/>
<path d="M0 0 C1.98 0.495 1.98 0.495 4 1 C4 2.32 4 3.64 4 5 C2.35 5 0.7 5 -1 5 C-0.67 3.35 -0.34 1.7 0 0 Z " fill="#D3E0DA" transform="translate(603,501)"/>
<path d="M0 0 C1.98 0.495 1.98 0.495 4 1 C4 2.32 4 3.64 4 5 C2.35 5 0.7 5 -1 5 C-0.67 3.35 -0.34 1.7 0 0 Z " fill="#C8D9D4" transform="translate(634,475)"/>
<path d="M0 0 C1.98 0.495 1.98 0.495 4 1 C4 2.32 4 3.64 4 5 C2.35 5 0.7 5 -1 5 C-0.67 3.35 -0.34 1.7 0 0 Z " fill="#D6DFDB" transform="translate(486,429)"/>
<path d="M0 0 C2.475 0.495 2.475 0.495 5 1 C4.67 2.32 4.34 3.64 4 5 C2.68 5 1.36 5 0 5 C0 3.35 0 1.7 0 0 Z " fill="#CCDBD8" transform="translate(471,420)"/>
<path d="M0 0 C1.65 0 3.3 0 5 0 C4.67 1.65 4.34 3.3 4 5 C2.68 4.67 1.36 4.34 0 4 C0 2.68 0 1.36 0 0 Z " fill="#CCD7D5" transform="translate(425,407)"/>
<path d="M0 0 C2.475 0.495 2.475 0.495 5 1 C4.67 2.32 4.34 3.64 4 5 C2.68 5 1.36 5 0 5 C0 3.35 0 1.7 0 0 Z " fill="#D1DEDA" transform="translate(442,397)"/>
<path d="M0 0 C2 2 2 2 2 4 C-2.38461538 7 -2.38461538 7 -5 7 C-5 5.68 -5 4.36 -5 3 C-2.5 1.25 -2.5 1.25 0 0 Z " fill="#134D3D" transform="translate(479,382)"/>
<path d="M0 0 C1.32 0 2.64 0 4 0 C4 1.65 4 3.3 4 5 C2.35 4.67 0.7 4.34 -1 4 C-0.67 2.68 -0.34 1.36 0 0 Z " fill="#CBD9D7" transform="translate(498,385)"/>
<path d="M0 0 C1.65 0 3.3 0 5 0 C4.67 1.65 4.34 3.3 4 5 C2.68 4.67 1.36 4.34 0 4 C0 2.68 0 1.36 0 0 Z " fill="#C7D8D2" transform="translate(463,382)"/>
<path d="M0 0 C1.98 0.495 1.98 0.495 4 1 C4 2.32 4 3.64 4 5 C2.35 5 0.7 5 -1 5 C-0.67 3.35 -0.34 1.7 0 0 Z " fill="#D5DFDE" transform="translate(416,381)"/>
<path d="M0 0 C1.32 0 2.64 0 4 0 C4 1.65 4 3.3 4 5 C2.35 4.67 0.7 4.34 -1 4 C-0.67 2.68 -0.34 1.36 0 0 Z " fill="#CCDCD8" transform="translate(482,379)"/>
<path d="M0 0 C2.475 0.495 2.475 0.495 5 1 C4.67 2.32 4.34 3.64 4 5 C2.68 5 1.36 5 0 5 C0 3.35 0 1.7 0 0 Z " fill="#C9D8D1" transform="translate(461,375)"/>
<path d="M0 0 C1.98 0.495 1.98 0.495 4 1 C4 2.32 4 3.64 4 5 C2.35 5 0.7 5 -1 5 C-0.67 3.35 -0.34 1.7 0 0 Z " fill="#D0E0DC" transform="translate(488,373)"/>
<path d="M0 0 C1.65 0 3.3 0 5 0 C4.67 1.65 4.34 3.3 4 5 C2.68 4.67 1.36 4.34 0 4 C0 2.68 0 1.36 0 0 Z " fill="#C6D7D0" transform="translate(468,373)"/>
<path d="M0 0 C2.475 0.495 2.475 0.495 5 1 C4.67 2.32 4.34 3.64 4 5 C2.68 5 1.36 5 0 5 C0 3.35 0 1.7 0 0 Z " fill="#C6D6D1" transform="translate(514,368)"/>
<path d="M0 0 C1.98 0.495 1.98 0.495 4 1 C4 2.32 4 3.64 4 5 C2.35 5 0.7 5 -1 5 C-0.67 3.35 -0.34 1.7 0 0 Z " fill="#C7DAD4" transform="translate(527,358)"/>
<path d="M0 0 C1.98 0.495 1.98 0.495 4 1 C4 2.32 4 3.64 4 5 C2.35 5 0.7 5 -1 5 C-0.67 3.35 -0.34 1.7 0 0 Z " fill="#CDDDD9" transform="translate(481,358)"/>
<path d="M0 0 C1.32 0 2.64 0 4 0 C4 1.65 4 3.3 4 5 C2.35 4.67 0.7 4.34 -1 4 C-0.67 2.68 -0.34 1.36 0 0 Z " fill="#CEDEDC" transform="translate(507,357)"/>
<path d="M0 0 C0.99 0 1.98 0 3 0 C3.33 1.32 3.66 2.64 4 4 C2.02 4.99 2.02 4.99 0 6 C-0.38218767 4.34385343 -0.71395102 2.67542976 -1 1 C-0.67 0.67 -0.34 0.34 0 0 Z " fill="#D2DFDE" transform="translate(513,350)"/>
<path d="M0 0 C1.98 0.495 1.98 0.495 4 1 C4 2.32 4 3.64 4 5 C2.35 5 0.7 5 -1 5 C-0.67 3.35 -0.34 1.7 0 0 Z " fill="#C5D3D0" transform="translate(467,349)"/>
<path d="M0 0 C2.475 0.495 2.475 0.495 5 1 C4.67 2.32 4.34 3.64 4 5 C2.68 5 1.36 5 0 5 C0 3.35 0 1.7 0 0 Z " fill="#BCCEC5" transform="translate(547,347)"/>
<path d="M0 0 C2.475 0.495 2.475 0.495 5 1 C4.67 2.32 4.34 3.64 4 5 C2.68 5 1.36 5 0 5 C0 3.35 0 1.7 0 0 Z " fill="#C7D6CD" transform="translate(554,344)"/>
<path d="M0 0 C1.98 0.495 1.98 0.495 4 1 C4 2.32 4 3.64 4 5 C2.35 5 0.7 5 -1 5 C-0.67 3.35 -0.34 1.7 0 0 Z " fill="#D5E1DF" transform="translate(500,342)"/>
<path d="M0 0 C1.32 0 2.64 0 4 0 C3.67 1.65 3.34 3.3 3 5 C1.68 5 0.36 5 -1 5 C-0.67 3.35 -0.34 1.7 0 0 Z " fill="#D4DFDD" transform="translate(516,343)"/>
<path d="M0 0 C1.98 0.495 1.98 0.495 4 1 C4 2.32 4 3.64 4 5 C2.35 5 0.7 5 -1 5 C-0.67 3.35 -0.34 1.7 0 0 Z " fill="#D1DDD7" transform="translate(562,341)"/>
<path d="M0 0 C2.475 0.495 2.475 0.495 5 1 C4.67 2.32 4.34 3.64 4 5 C2.68 5 1.36 5 0 5 C0 3.35 0 1.7 0 0 Z " fill="#C5D6CE" transform="translate(576,336)"/>
<path d="M0 0 C2.475 0.495 2.475 0.495 5 1 C4.67 2.32 4.34 3.64 4 5 C2.68 5 1.36 5 0 5 C0 3.35 0 1.7 0 0 Z " fill="#C8D8D2" transform="translate(501,334)"/>
<path d="M0 0 C1.65 0 3.3 0 5 0 C4.67 1.65 4.34 3.3 4 5 C2.68 4.67 1.36 4.34 0 4 C0 2.68 0 1.36 0 0 Z " fill="#C6D4CC" transform="translate(583,334)"/>
<path d="M0 0 C1.65 0 3.3 0 5 0 C4.67 1.65 4.34 3.3 4 5 C2.68 4.67 1.36 4.34 0 4 C0 2.68 0 1.36 0 0 Z " fill="#C7D5CE" transform="translate(591,331)"/>
<path d="M0 0 C1.65 0 3.3 0 5 0 C4.67 1.65 4.34 3.3 4 5 C2.68 4.67 1.36 4.34 0 4 C0 2.68 0 1.36 0 0 Z " fill="#C3D5CE" transform="translate(597,326)"/>
<path d="M0 0 C1.98 0.495 1.98 0.495 4 1 C4 2.32 4 3.64 4 5 C2.35 4.67 0.7 4.34 -1 4 C-0.67 2.68 -0.34 1.36 0 0 Z " fill="#CBD8D4" transform="translate(551,568)"/>
<path d="M0 0 C1.98 0.495 1.98 0.495 4 1 C3.67 2.32 3.34 3.64 3 5 C1.68 5 0.36 5 -1 5 C-0.67 3.35 -0.34 1.7 0 0 Z " fill="#D3DCD8" transform="translate(546,562)"/>
<path d="M0 0 C2.475 0.495 2.475 0.495 5 1 C4.67 2.32 4.34 3.64 4 5 C2.68 4.67 1.36 4.34 0 4 C0 2.68 0 1.36 0 0 Z " fill="#D0DBD4" transform="translate(531,545)"/>
<path d="M0 0 C1.98 0.495 1.98 0.495 4 1 C4 2.32 4 3.64 4 5 C2.35 4.67 0.7 4.34 -1 4 C-0.67 2.68 -0.34 1.36 0 0 Z " fill="#D2E0DA" transform="translate(596,529)"/>
<path d="M0 0 C0.66 0 1.32 0 2 0 C2.33 0.33 2.66 0.66 3 1 C3.66 0.67 4.32 0.34 5 0 C4.67 2.97 4.34 5.94 4 9 C2.00902154 6.01353231 1.05875074 3.40312738 0 0 Z " fill="#296757" transform="translate(497,527)"/>
<path d="M0 0 C2.475 0.495 2.475 0.495 5 1 C4.67 2.32 4.34 3.64 4 5 C2.68 4.67 1.36 4.34 0 4 C0 2.68 0 1.36 0 0 Z " fill="#D4E0DD" transform="translate(566,524)"/>
<path d="M0 0 C1.32 0 2.64 0 4 0 C3.67 1.65 3.34 3.3 3 5 C1.68 4.67 0.36 4.34 -1 4 C-0.67 2.68 -0.34 1.36 0 0 Z " fill="#D0DCD8" transform="translate(629,482)"/>
<path d="M0 0 C1.98 0.495 1.98 0.495 4 1 C4 2.32 4 3.64 4 5 C2.35 4.67 0.7 4.34 -1 4 C-0.67 2.68 -0.34 1.36 0 0 Z " fill="#D8E0DF" transform="translate(465,415)"/>
<path d="M0 0 C1.98 0.495 1.98 0.495 4 1 C3.67 2.32 3.34 3.64 3 5 C1.68 5 0.36 5 -1 5 C-0.67 3.35 -0.34 1.7 0 0 Z " fill="#D0DBD7" transform="translate(489,406)"/>
<path d="M0 0 C2.475 0.495 2.475 0.495 5 1 C4.67 2.32 4.34 3.64 4 5 C2.68 4.67 1.36 4.34 0 4 C0 2.68 0 1.36 0 0 Z " fill="#C7D2D0" transform="translate(418,404)"/>
<path d="M0 0 C1.32 0 2.64 0 4 0 C3.67 1.65 3.34 3.3 3 5 C1.68 4.67 0.36 4.34 -1 4 C-0.67 2.68 -0.34 1.36 0 0 Z " fill="#D5E1DE" transform="translate(491,399)"/>
<path d="M0 0 C1.98 0.495 1.98 0.495 4 1 C4 2.32 4 3.64 4 5 C2.35 4.67 0.7 4.34 -1 4 C-0.67 2.68 -0.34 1.36 0 0 Z " fill="#CADCD7" transform="translate(435,395)"/>
<path d="M0 0 C2.475 0.495 2.475 0.495 5 1 C4.67 2.32 4.34 3.64 4 5 C2.68 5 1.36 5 0 5 C0 3.35 0 1.7 0 0 Z " fill="#D2DEDB" transform="translate(494,392)"/>
<path d="M0 0 C1.32 0 2.64 0 4 0 C3.67 1.65 3.34 3.3 3 5 C1.68 4.67 0.36 4.34 -1 4 C-0.67 2.68 -0.34 1.36 0 0 Z " fill="#CDD8D7" transform="translate(503,379)"/>
<path d="M0 0 C2.475 0.495 2.475 0.495 5 1 C4.67 2.32 4.34 3.64 4 5 C2.68 4.67 1.36 4.34 0 4 C0 2.68 0 1.36 0 0 Z " fill="#D7E0E0" transform="translate(412,374)"/>
<path d="M0 0 C1.32 0 2.64 0 4 0 C3.67 1.65 3.34 3.3 3 5 C1.68 4.67 0.36 4.34 -1 4 C-0.67 2.68 -0.34 1.36 0 0 Z " fill="#C8D9D5" transform="translate(521,363)"/>
<path d="M0 0 C1.32 0 2.64 0 4 0 C3.67 1.65 3.34 3.3 3 5 C1.68 4.67 0.36 4.34 -1 4 C-0.67 2.68 -0.34 1.36 0 0 Z " fill="#D2DFD8" transform="translate(569,339)"/>
<path d="M0 0 C0.99 0 1.98 0 3 0 C3 1.65 3 3.3 3 5 C1.68 5 0.36 5 -1 5 C-0.67 3.35 -0.34 1.7 0 0 Z " fill="#D4DDD8" transform="translate(487,421)"/>
<path d="M0 0 C1.98 0.495 1.98 0.495 4 1 C3.67 2.32 3.34 3.64 3 5 C1.68 4.67 0.36 4.34 -1 4 C-0.67 2.68 -0.34 1.36 0 0 Z " fill="#D6DAD9" transform="translate(412,399)"/>
<path d="M0 0 C1.98 0.495 1.98 0.495 4 1 C3.67 2.32 3.34 3.64 3 5 C1.68 4.67 0.36 4.34 -1 4 C-0.67 2.68 -0.34 1.36 0 0 Z " fill="#D5DCDB" transform="translate(407,393)"/>
<path d="M0 0 C1.98 0.495 1.98 0.495 4 1 C3.67 2.32 3.34 3.64 3 5 C1.68 4.67 0.36 4.34 -1 4 C-0.67 2.68 -0.34 1.36 0 0 Z " fill="#CDD9D6" transform="translate(428,392)"/>
<path d="M0 0 C1.98 0.495 1.98 0.495 4 1 C3.67 2.32 3.34 3.64 3 5 C1.68 4.67 0.36 4.34 -1 4 C-0.67 2.68 -0.34 1.36 0 0 Z " fill="#CDD7D5" transform="translate(470,387)"/>
<path d="M0 0 C1.98 0.495 1.98 0.495 4 1 C3.67 2.32 3.34 3.64 3 5 C1.68 4.67 0.36 4.34 -1 4 C-0.67 2.68 -0.34 1.36 0 0 Z " fill="#D7DBD7" transform="translate(404,386)"/>
<path d="M0 0 C1.98 0.495 1.98 0.495 4 1 C3.67 2.32 3.34 3.64 3 5 C1.68 4.67 0.36 4.34 -1 4 C-0.67 2.68 -0.34 1.36 0 0 Z " fill="#D8E0DD" transform="translate(515,327)"/>
<path d="M0 0 C1.32 0.66 2.64 1.32 4 2 C3.67 2.99 3.34 3.98 3 5 C1.68 5 0.36 5 -1 5 C-0.67 3.35 -0.34 1.7 0 0 Z " fill="#D4DFD9" transform="translate(575,521)"/>
<path d="M0 0 C1.32 0 2.64 0 4 0 C4 1.65 4 3.3 4 5 C2.68 5 1.36 5 0 5 C0 3.35 0 1.7 0 0 Z " fill="#CFDCD5" transform="translate(623,488)"/>
<path d="M0 0 C1.32 0 2.64 0 4 0 C4 1.65 4 3.3 4 5 C2.68 5 1.36 5 0 5 C0 3.35 0 1.7 0 0 Z " fill="#D4DDDA" transform="translate(487,414)"/>
<path d="M0 0 C0.33 1.32 0.66 2.64 1 4 C2.97536745 3.65213292 2.97536745 3.65213292 5 3 C5.33 2.34 5.66 1.68 6 1 C6.66 1 7.32 1 8 1 C7.6875 2.9375 7.6875 2.9375 7 5 C3.37673261 6.2077558 2.35853631 5.54311128 -1 4 C-0.67 2.68 -0.34 1.36 0 0 Z " fill="#2D6B59" transform="translate(441,398)"/>
<path d="M0 0 C2.31 0.33 4.62 0.66 7 1 C7 2.65 7 4.3 7 6 C6.01 6 5.02 6 4 6 C3.67 5.01 3.34 4.02 3 3 C2.01 2.67 1.02 2.34 0 2 C0 1.34 0 0.68 0 0 Z " fill="#185343" transform="translate(474,377)"/>
<path d="M0 0 C1.32 0.66 2.64 1.32 4 2 C3.67 2.99 3.34 3.98 3 5 C1.68 5 0.36 5 -1 5 C-0.67 3.35 -0.34 1.7 0 0 Z " fill="#C8DAD5" transform="translate(509,373)"/>
<path d="M0 0 C0.66 0 1.32 0 2 0 C2.66 1.32 3.32 2.64 4 4 C3.01 4 2.02 4 1 4 C0.34 5.65 -0.32 7.3 -1 9 C-1.33 9 -1.66 9 -2 9 C-2.25 3.375 -2.25 3.375 0 0 Z " fill="#245E4E" transform="translate(474,374)"/>
<path d="M0 0 C0.66 0.66 1.32 1.32 2 2 C2.99 2 3.98 2 5 2 C4.34 3.98 3.68 5.96 3 8 C2.67 6.68 2.34 5.36 2 4 C0.68 3.67 -0.64 3.34 -2 3 C-1.34 2.01 -0.68 1.02 0 0 Z " fill="#367061" transform="translate(474,361)"/>
<path d="M0 0 C1.32 0 2.64 0 4 0 C4 1.65 4 3.3 4 5 C2.68 5 1.36 5 0 5 C0 3.35 0 1.7 0 0 Z " fill="#CCD7D4" transform="translate(488,354)"/>
<path d="M0 0 C0.99 0.33 1.98 0.66 3 1 C2.67 2.65 2.34 4.3 2 6 C1.01 5.67 0.02 5.34 -1 5 C-0.67 3.35 -0.34 1.7 0 0 Z " fill="#CADAD1" transform="translate(541,350)"/>
<path d="M0 0 C1.32 0 2.64 0 4 0 C4 1.65 4 3.3 4 5 C2.68 5 1.36 5 0 5 C0 3.35 0 1.7 0 0 Z " fill="#CEDBD5" transform="translate(510,320)"/>
<path d="M0 0 C1.65 0 3.3 0 5 0 C4.67 1.32 4.34 2.64 4 4 C2.68 4 1.36 4 0 4 C0 2.68 0 1.36 0 0 Z " fill="#D3E3DD" transform="translate(533,355)"/>
<path d="M0 0 C0.66 0.33 1.32 0.66 2 1 C1.67 2.32 1.34 3.64 1 5 C2.32 5.33 3.64 5.66 5 6 C3.68 6 2.36 6 1 6 C0.67 6.66 0.34 7.32 0 8 C-0.33 7.34 -0.66 6.68 -1 6 C-1.99 5.34 -2.98 4.68 -4 4 C-2.68 4 -1.36 4 0 4 C0 2.68 0 1.36 0 0 Z " fill="#387362" transform="translate(545,517)"/>
<path d="M0 0 C2.475 0.495 2.475 0.495 5 1 C4.67 2.32 4.34 3.64 4 5 C3.67 4.67 3.34 4.34 3 4 C2.67 4.99 2.34 5.98 2 7 C1.34 4.69 0.68 2.38 0 0 Z " fill="#2F6C5B" transform="translate(497,462)"/>
<path d="M0 0 C2.64 0 5.28 0 8 0 C7.34 0.66 6.68 1.32 6 2 C5.01 2 4.02 2 3 2 C3 3.32 3 4.64 3 6 C2.01 5.67 1.02 5.34 0 5 C0 3.35 0 1.7 0 0 Z " fill="#2A6957" transform="translate(462,414)"/>
<path d="M0 0 C0 0.66 0 1.32 0 2 C-0.66 2 -1.32 2 -2 2 C-2 3.65 -2 5.3 -2 7 C-2.66 6.67 -3.32 6.34 -4 6 C-3.67 4.68 -3.34 3.36 -3 2 C-3.99 1.67 -4.98 1.34 -6 1 C-4 0 -4 0 0 0 Z " fill="#3D7866" transform="translate(498,397)"/>
<path d="M0 0 C0.33 0 0.66 0 1 0 C1 1.65 1 3.3 1 5 C1.66 5.33 2.32 5.66 3 6 C2.01 6.495 2.01 6.495 1 7 C0.01 8.485 0.01 8.485 -1 10 C-1 8.35 -1 6.7 -1 5 C-1.66 4.67 -2.32 4.34 -3 4 C-2.01 4 -1.02 4 0 4 C0 2.68 0 1.36 0 0 Z " fill="#447768" transform="translate(514,321)"/>
</svg>
