<svg width="22" height="34" viewBox="0 0 22 34" fill="none" xmlns="http://www.w3.org/2000/svg">
<path fill-rule="evenodd" clip-rule="evenodd" d="M2.26386 6.07612C2.53235 5.82078 2.96765 5.82078 3.23614 6.07612L11 13.4599L18.7639 6.07612C19.0324 5.82078 19.4676 5.82078 19.7361 6.07612C20.0046 6.33146 20.0046 6.74546 19.7361 7.0008L11.4861 14.847C11.2177 15.1023 10.7823 15.1023 10.5139 14.847L2.26386 7.0008C1.99538 6.74546 1.99538 6.33146 2.26386 6.07612Z" fill="#40EA87"/>
<path fill-rule="evenodd" clip-rule="evenodd" d="M2.26386 12.6146C2.53235 12.3592 2.96765 12.3592 3.23614 12.6146L11 19.9984L18.7639 12.6146C19.0324 12.3592 19.4676 12.3592 19.7361 12.6146C20.0046 12.8699 20.0046 13.2839 19.7361 13.5393L11.4861 21.3854C11.2177 21.6407 10.7823 21.6407 10.5139 21.3854L2.26386 13.5393C1.99538 13.2839 1.99538 12.8699 2.26386 12.6146Z" fill="#39EC91" fill-opacity="0.6"/>
<path fill-rule="evenodd" clip-rule="evenodd" d="M2.26386 19.1531C2.53235 18.8977 2.96765 18.8977 3.23614 19.1531L11 26.5369L18.7639 19.1531C19.0324 18.8977 19.4676 18.8977 19.7361 19.1531C20.0046 19.4084 20.0046 19.8224 19.7361 20.0777L11.4861 27.9239C11.2177 28.1792 10.7823 28.1792 10.5139 27.9239L2.26386 20.0777C1.99538 19.8224 1.99538 19.4084 2.26386 19.1531Z" fill="#39EC91" fill-opacity="0.3"/>
</svg>
